<svg width="360" height="72" viewBox="0 0 360 72" fill="none" xmlns="http://www.w3.org/2000/svg">
<g opacity="0.3">
<path d="M144.251 54.8794L144.251 53.9519C144.497 44.1964 152.481 36.3686 162.292 36.3686L180.345 36.3686L180.345 54.4156C180.345 61.098 176.719 66.9256 171.321 70.0433C168.729 71.5407 165.729 72.4179 162.527 72.457L162.063 72.457C152.358 72.3341 144.497 64.551 144.257 54.8794" fill="#DDDDDD"/>
<path d="M144.252 36.373C144.252 16.4431 128.093 0.284605 108.163 0.284607L108.163 36.373L144.252 36.373Z" fill="#DDDDDD"/>
<path d="M144.252 72.4648C144.252 52.5349 128.093 36.3764 108.163 36.3764L108.163 72.4648L144.252 72.4648Z" fill="#DDDDDD"/>
<path d="M108.155 53.9463L108.155 54.8738C107.909 64.6292 99.9245 72.457 90.1132 72.457L72.0605 72.457L72.0605 54.41C72.0605 47.7276 75.6867 41.9 81.0841 38.7823C83.6766 37.2849 86.677 36.4077 89.8785 36.3686L90.3422 36.3686C100.047 36.4915 107.909 44.2746 108.149 53.9463" fill="#DDDDDD"/>
<path d="M361.201 53.9463L361.201 54.8738C360.956 64.6292 352.971 72.457 343.16 72.457L325.107 72.457L325.107 54.41C325.107 47.7276 328.734 41.9 334.131 38.7823C336.723 37.2849 339.724 36.4077 342.925 36.3686L343.389 36.3686C353.094 36.4915 360.956 44.2746 361.196 53.9463" fill="#DDDDDD"/>
<path d="M72.1106 17.581L72.1106 18.5085C71.8648 28.264 63.8805 36.0918 54.0692 36.0918L36.0166 36.0918L36.0166 18.0448C36.0166 11.3624 39.6428 5.5348 45.0401 2.41708C47.6326 0.919677 50.633 0.0424677 53.8345 0.00335538L54.2983 0.00335534C64.0034 0.126275 71.8648 7.9094 72.105 17.581" fill="#DDDDDD"/>
<path d="M323.312 17.581L323.312 18.5085C323.066 28.264 315.082 36.0918 305.27 36.0918L287.218 36.0918L287.218 18.0448C287.218 11.3624 290.844 5.5348 296.241 2.41708C298.834 0.919677 301.834 0.0424677 305.036 0.00335538L305.499 0.00335534C315.205 0.126275 323.066 7.9094 323.306 17.581" fill="#DDDDDD"/>
<path d="M215.182 36.0205C235.112 36.0205 251.271 52.1787 251.271 72.1083L215.182 72.1083L215.182 36.0205Z" fill="#DDDDDD"/>
<path d="M36.018 36.0205C55.9479 36.0205 72.1064 52.1787 72.1064 72.1083L36.018 72.1083L36.018 36.0205Z" fill="#DDDDDD"/>
<path d="M289.065 36.0205C308.995 36.0205 325.153 52.1787 325.153 72.1083L289.065 72.1083L289.065 36.0205Z" fill="#DDDDDD"/>
<path d="M-0.000545502 72.1084C19.9294 72.1084 36.0879 55.9502 36.0879 36.0206L-0.000545966 36.0206L-0.000545502 72.1084Z" fill="#DDDDDD"/>
<path d="M253.048 72.1084C272.978 72.1084 289.137 55.9502 289.137 36.0206L253.048 36.0206L253.048 72.1084Z" fill="#DDDDDD"/>
<path d="M215.252 0.926759C195.323 0.926759 179.164 17.0853 179.164 37.0152L215.252 37.0152L215.252 0.926759Z" fill="#FF4B33" fill-opacity="0.3"/>
</g>
</svg>
