<svg xmlns="http://www.w3.org/2000/svg" width="372" height="443" fill="none"><path fill="#F2F2F2" d="M240.651 89h-2.288C214.305 88.394 195 68.706 195 44.514V0h44.507c16.48 0 30.852 8.941 38.54 22.25A44.312 44.312 0 0 1 284 43.935v1.144c-.303 23.93-19.498 43.315-43.349 43.907M283 266c49.15 0 89-39.85 89-89h-89v89Z"/><path fill="#F2F2F2" d="M326.349 89h2.288c24.058.606 43.363 20.294 43.363 44.486V178h-44.507c-16.48 0-30.852-8.941-38.54-22.25A44.313 44.313 0 0 1 283 134.065v-1.144c.303-23.93 19.498-43.315 43.349-43.907M195 88c-49.15 0-89 39.85-89 89h89V88Z"/><path fill="#F2F2F2" d="M284 88c-49.15 0-89 39.85-89 89h89V88ZM372 265c-49.15 0-89 39.85-89 89h89v-89Z"/><path fill="#F2F2F2" d="M372 89c0-49.15-39.85-89-89-89v89h89ZM239.349 177h2.288c24.058.606 43.363 20.294 43.363 44.486V266h-44.507c-16.48 0-30.852-8.941-38.54-22.25A44.313 44.313 0 0 1 196 222.065v-1.144c.303-23.93 19.498-43.315 43.349-43.907M149.349 265h2.288c24.058.606 43.363 20.294 43.363 44.486V354h-44.507c-16.48 0-30.852-8.941-38.54-22.25A44.313 44.313 0 0 1 106 310.065v-1.144c.303-23.93 19.498-43.315 43.349-43.907M0 0c0 49.15 39.85 89 89 89V0H0Z"/><path fill="#fff" d="M194 354c0 49.15 39.85 89 89 89v-89h-89Z"/><path fill="#FF4235" d="M194 354c0 49.15 39.85 89 89 89v-89h-89Z" opacity=".15"/></svg>
