<svg xmlns="http://www.w3.org/2000/svg" width="24" height="24" fill="none"><path fill="#1B1B1B" d="M17.301 10.5h5.898a.376.376 0 0 1 .288.615l-2.949 3.54a.375.375 0 0 1-.576 0l-2.949-3.54a.375.375 0 0 1 .288-.615Zm-16.5 3h5.898a.374.374 0 0 0 .288-.615l-2.949-3.54a.375.375 0 0 0-.576 0l-2.949 3.54a.375.375 0 0 0 .288.615Z"/><path fill="#1B1B1B" fill-rule="evenodd" d="M12 4.5a7.483 7.483 0 0 0-5.785 2.727.75.75 0 1 1-1.157-.954A9.003 9.003 0 0 1 20.875 10.5H19.35a7.503 7.503 0 0 0-7.35-6Zm-7.35 9a7.503 7.503 0 0 0 13.135 3.273.75.75 0 1 1 1.157.954A9.003 9.003 0 0 1 3.124 13.5H4.65Z" clip-rule="evenodd"/></svg>