<svg xmlns="http://www.w3.org/2000/svg" width="16" height="16" fill="none"><path fill="#000" d="M13.063 6.388c-.205 0-.407.04-.597.117a1.597 1.597 0 0 0-1.533-1.182 1.566 1.566 0 0 0-.782.213 1.597 1.597 0 0 0-1.88-.65V1.598a1.597 1.597 0 1 0-3.193 0v8.3l-.48-.48a2.337 2.337 0 0 0-3.3 0 1.011 1.011 0 0 0-.037 1.395l3.833 4.258a2.732 2.732 0 0 0 2.028.9h4.455a2.73 2.73 0 0 0 2.55-1.714 7.73 7.73 0 0 0 .533-2.859V7.985a1.597 1.597 0 0 0-1.597-1.597Zm.532 5.01a6.586 6.586 0 0 1-.474 2.443 1.656 1.656 0 0 1-1.544 1.064H7.122a1.677 1.677 0 0 1-1.24-.532l-3.796-4.259a1.272 1.272 0 0 1 1.762.032l1.384 1.39a.533.533 0 0 0 .814-.075.532.532 0 0 0 .096-.282V1.597a.532.532 0 0 1 1.065 0v6.388a.532.532 0 1 0 1.065 0V6.388a.532.532 0 0 1 1.064 0v2.13a.532.532 0 1 0 1.065 0V6.92a.532.532 0 1 1 1.065 0v2.13a.532.532 0 0 0 1.064 0V7.985a.532.532 0 0 1 1.065 0v3.412Z"/></svg>