<svg xmlns="http://www.w3.org/2000/svg" width="16" height="16" fill="none"><path fill="#1B1B1B" d="M2.947 8h.26l.494 3.946a1.263 1.263 0 0 0 1.253 1.107h6.934a1.263 1.263 0 0 0 1.254-1.107L13.635 8h.26a.842.842 0 0 0 .842-.842V5.474a.842.842 0 0 0-.842-.842H12.87l-1.376-2.32a.421.421 0 0 0-.724.43l1.121 1.89H4.95l1.122-1.89a.42.42 0 1 0-.725-.43l-1.376 2.32H2.947a.842.842 0 0 0-.842.842v1.684A.842.842 0 0 0 2.947 8Zm9.36 3.842a.421.421 0 0 1-.419.369H4.954a.422.422 0 0 1-.418-.37l-.48-3.84h8.73l-.48 3.84Zm-9.36-6.368h10.948v1.684H2.947V5.474Z"/><path fill="#1B1B1B" d="M8.421 11.369a.421.421 0 0 0 .421-.421V9.262a.421.421 0 1 0-.842 0v1.684a.42.42 0 0 0 .421.422ZM6.316 11.369a.421.421 0 0 0 .42-.421V9.262a.421.421 0 1 0-.841 0v1.684a.42.42 0 0 0 .42.422ZM10.526 11.369a.421.421 0 0 0 .421-.421V9.262a.421.421 0 0 0-.842 0v1.684a.42.42 0 0 0 .421.422Z"/></svg>