<svg xmlns="http://www.w3.org/2000/svg" width="16" height="16" fill="none"><path fill="#1B1B1B" fill-rule="evenodd" d="M1.5.536C1.5.24 1.743 0 2.042 0h11.916c.3 0 .542.24.542.536v13.928c0 .198-.11.38-.287.473a.547.547 0 0 1-.558-.029l-2.676-1.787-2.676 1.787a.546.546 0 0 1-.622-.01l-2.66-1.914-2.66 1.914a.547.547 0 0 1-.565.044.535.535 0 0 1-.296-.478V.536Zm1.083.535v12.341l2.12-1.524a.547.547 0 0 1 .636 0l2.673 1.922 2.664-1.78a.547.547 0 0 1 .606 0l2.135 1.426V1.071H2.583Z" clip-rule="evenodd"/><path fill="#1B1B1B" fill-rule="evenodd" d="M7.5 4a.5.5 0 0 1 .5-.5h3a.5.5 0 0 1 0 1H8a.5.5 0 0 1-.5-.5ZM7.5 6.5A.5.5 0 0 1 8 6h3a.5.5 0 0 1 0 1H8a.5.5 0 0 1-.5-.5ZM4.5 9a.5.5 0 0 1 .5-.5h6a.5.5 0 0 1 0 1H5a.5.5 0 0 1-.5-.5Z" clip-rule="evenodd"/><path fill="#1B1B1B" d="M5.162 6.588v.28c0 .073.052.132.116.132h.297c.064 0 .116-.059.116-.132v-.28c.219-.044.4-.147.528-.309a.986.986 0 0 0 .22-.647c0-.073 0-.132-.013-.19a2.637 2.637 0 0 0-.04-.163c-.012-.058-.038-.103-.064-.147-.025-.044-.064-.088-.09-.117-.026-.03-.064-.074-.116-.103-.039-.03-.09-.06-.129-.088-.039-.03-.09-.045-.142-.074a.668.668 0 0 0-.154-.059c-.052-.014-.103-.044-.168-.059a1.912 1.912 0 0 1-.31-.147c-.05-.044-.077-.088-.077-.147s.013-.103.065-.132c.051-.044.116-.059.206-.059.168 0 .348.074.541.206.052.044.117.03.155-.03l.245-.338c.026-.03.026-.073.026-.103a.1.1 0 0 0-.052-.088c-.077-.073-.18-.132-.27-.191a1.356 1.356 0 0 0-.336-.132v-.339C5.716 3.06 5.665 3 5.6 3h-.296c-.065 0-.116.059-.116.132v.31a.935.935 0 0 0-.529.293.986.986 0 0 0-.219.647c0 .06 0 .118.013.177s.026.103.039.162c.013.044.038.088.051.132a.816.816 0 0 0 .078.118c.025.029.064.058.09.088.026.03.064.059.116.088.039.03.077.044.116.059.039.015.077.044.129.059.051.014.09.029.129.044.038.014.077.03.142.044.051.015.103.03.141.059a.43.43 0 0 1 .116.059l.078.044c.013.014.038.03.051.059.013.014.026.029.026.058 0 .015.013.045.013.074a.224.224 0 0 1-.065.162c-.116.088-.335.088-.54-.015a.953.953 0 0 1-.285-.206c-.025-.03-.064-.044-.09-.03-.038 0-.064.015-.077.045L4.466 6a.153.153 0 0 0 .013.191c.155.191.4.338.683.397Z"/></svg>