<svg xmlns="http://www.w3.org/2000/svg" width="15" height="14" fill="none"><path fill="#000" fill-rule="evenodd" d="M1.733 1.444c0-.245.2-.444.445-.444h4.444c.246 0 .445.199.445.444V5.89a.444.444 0 0 1-.445.444H2.178a.444.444 0 0 1-.445-.444V1.444Zm.89.445v3.556h3.555V1.889H2.622ZM1.733 8.111c0-.245.2-.444.445-.444h4.444c.246 0 .445.199.445.444v4.445a.444.444 0 0 1-.445.444H2.178a.444.444 0 0 1-.445-.444V8.111Zm.89.445v3.556h3.555V8.555H2.622ZM9.067 1.444c0-.245.186-.444.416-.444h4.167c.23 0 .417.199.417.444v11.112c0 .245-.187.444-.417.444H9.483c-.23 0-.416-.199-.416-.444V1.444Zm.833.445V12.11h3.333V1.89H9.9Z" clip-rule="evenodd"/></svg>