<svg xmlns="http://www.w3.org/2000/svg" width="16" height="16" fill="none"><path fill="#1B1B1B" d="M4.758 13.704c-.192 0-.325-.059-.4-.176-.064-.107-.074-.288-.032-.544l.352-2.096h-1.76c-.149 0-.25-.037-.304-.112-.053-.085-.069-.224-.048-.416.022-.192.059-.336.112-.432a.459.459 0 0 1 .256-.192c.118-.043.246-.064.384-.064H4.87l.48-2.928H3.606c-.149 0-.256-.037-.32-.112-.053-.075-.069-.203-.048-.384.022-.203.064-.352.128-.448a.459.459 0 0 1 .256-.192c.107-.043.235-.064.384-.064h1.536l.4-2.4c.043-.235.096-.41.16-.528a.495.495 0 0 1 .288-.24c.128-.053.304-.08.528-.08.224 0 .363.064.416.192.064.117.07.325.016.624l-.416 2.432h3.264l.368-2.336c.043-.235.091-.416.144-.544a.494.494 0 0 1 .256-.272c.118-.064.294-.096.528-.096.224 0 .374.059.448.176.075.107.091.293.048.56l-.4 2.512h1.472c.182 0 .294.048.336.144.054.096.059.24.016.432a1.096 1.096 0 0 1-.176.432.475.475 0 0 1-.256.16 1.265 1.265 0 0 1-.304.032h-1.312l-.448 2.928h1.456c.182 0 .294.053.336.16a.624.624 0 0 1 .032.352 1.84 1.84 0 0 1-.176.464.463.463 0 0 1-.24.192.975.975 0 0 1-.336.048h-1.296l-.32 1.952a1.427 1.427 0 0 1-.128.48.616.616 0 0 1-.304.288c-.128.064-.314.096-.56.096-.17 0-.293-.059-.368-.176-.074-.107-.09-.293-.048-.56l.32-2.08H6.07l-.32 1.92c-.032.203-.08.373-.144.512a.628.628 0 0 1-.288.288c-.128.064-.314.096-.56.096Zm1.488-4.032H9.51l.464-2.928h-3.2l-.528 2.928Z"/></svg>