<svg xmlns="http://www.w3.org/2000/svg" width="16" height="16" fill="none"><path fill="#000" d="M12.29 12.286c0-.087.035-.174.104-.24 1.18-1.144 1.83-2.658 1.83-4.264 0-1.605-.65-3.12-1.83-4.263a.333.333 0 0 1 0-.482.363.363 0 0 1 .5.001c1.313 1.272 2.036 2.957 2.036 4.744 0 1.788-.723 3.473-2.035 4.745a.362.362 0 0 1-.5 0 .332.332 0 0 1-.104-.24Zm-1.23-1.046a.362.362 0 0 0 .5 0 4.775 4.775 0 0 0 1.485-3.457 4.775 4.775 0 0 0-1.485-3.457.362.362 0 0 0-.5 0 .332.332 0 0 0 0 .482 4.11 4.11 0 0 1 1.278 2.975 4.11 4.11 0 0 1-1.277 2.975.333.333 0 0 0 0 .482ZM9.727 9.952a.362.362 0 0 0 .5.002 2.982 2.982 0 0 0 .934-2.172c0-.824-.332-1.595-.935-2.171a.363.363 0 0 0-.5.002.333.333 0 0 0 .002.482c.468.448.726 1.046.726 1.687 0 .64-.258 1.24-.726 1.687a.334.334 0 0 0-.001.483Z"/><path fill="#1B1B1B" d="M1.375 2.938c0-.823.671-1.49 1.5-1.49h3.749c.828 0 1.5.667 1.5 1.49v8.199c0 .823-.672 1.49-1.5 1.49h-3.75c-.828 0-1.5-.667-1.5-1.49v-8.2Z"/><path fill="#1B1B1B" fill-rule="evenodd" d="M1 2.938c0-1.03.84-1.863 1.875-1.863h3.749c1.035 0 1.874.834 1.874 1.863v8.199C8.498 12.166 7.66 13 6.624 13h-3.75A1.869 1.869 0 0 1 1 11.137V2.938ZM2.875 1.82c-.622 0-1.125.5-1.125 1.118v8.199c0 .617.503 1.118 1.125 1.118h3.749c.62 0 1.124-.5 1.124-1.118V2.938c0-.617-.503-1.118-1.124-1.118h-3.75Z" clip-rule="evenodd"/><path fill="#fff" fill-rule="evenodd" d="M3.175 1.447c0-.247.2-.447.45-.447h2.249c.248 0 .45.2.45.447a.449.449 0 0 1-.45.447h-2.25c-.248 0-.45-.2-.45-.447ZM3.324 11.882c0-.165.135-.298.3-.298h2.25c.166 0 .3.133.3.298a.3.3 0 0 1-.3.298h-2.25a.3.3 0 0 1-.3-.298Z" clip-rule="evenodd"/></svg>