<svg xmlns="http://www.w3.org/2000/svg" width="18" height="18" fill="none"><path stroke="#000" d="M1 3a2 2 0 0 1 2-2h12a2 2 0 0 1 2 2v12a2 2 0 0 1-2 2H3a2 2 0 0 1-2-2V3Z"/><path fill="#1B1B1B" d="M13.354 14.175a.487.487 0 0 1-.145-.35c.004-2.37-.909-4.57-2.57-6.195-1.66-1.625-3.88-2.49-6.25-2.434a.484.484 0 0 1-.498-.489.52.52 0 0 1 .504-.513c2.636-.062 5.106.9 6.955 2.71 1.849 1.808 2.865 4.256 2.86 6.894a.519.519 0 0 1-.502.514.482.482 0 0 1-.354-.137Zm-2.32.206a.518.518 0 0 0 .503-.514c.007-1.92-.733-3.704-2.083-5.025-1.35-1.32-3.15-2.022-5.07-1.973a.518.518 0 0 0-.502.514.483.483 0 0 0 .499.488 5.964 5.964 0 0 1 4.362 1.697 5.965 5.965 0 0 1 1.793 4.325.485.485 0 0 0 .498.488Zm-2.675.069a.52.52 0 0 0 .505-.512 4.328 4.328 0 0 0-1.307-3.158 4.33 4.33 0 0 0-3.186-1.238.52.52 0 0 0-.5.517c0 .278.225.494.5.486a3.362 3.362 0 0 1 2.474.961A3.359 3.359 0 0 1 7.86 13.96a.485.485 0 0 0 .499.49Z"/></svg>