<svg xmlns="http://www.w3.org/2000/svg" width="16" height="14" fill="none"><path fill="#000" fill-rule="evenodd" d="M1.668 3.588a1.744 1.744 0 1 0 3.488 0 1.744 1.744 0 0 0-3.488 0Zm-.91 0a2.654 2.654 0 1 0 5.308 0 2.654 2.654 0 0 0-5.308 0ZM1.668 10.412a1.744 1.744 0 1 0 3.488 0 1.744 1.744 0 0 0-3.488 0Zm-.91 0a2.654 2.654 0 1 0 5.308 0 2.654 2.654 0 0 0-5.308 0ZM15.042 2.223a.455.455 0 0 0-.455-.455H8.52a.455.455 0 1 0 0 .91h6.066a.455.455 0 0 0 .455-.455ZM15.042 5.408a.455.455 0 0 0-.455-.455H8.52a.455.455 0 1 0 0 .91h6.066a.455.455 0 0 0 .455-.455ZM15.042 8.592a.455.455 0 0 0-.455-.455H8.52a.455.455 0 1 0 0 .91h6.066a.455.455 0 0 0 .455-.455ZM15.042 11.777a.455.455 0 0 0-.455-.455H8.52a.455.455 0 1 0 0 .91h6.066a.455.455 0 0 0 .455-.455Z" clip-rule="evenodd"/></svg>