<svg xmlns="http://www.w3.org/2000/svg" width="18" height="18" fill="none"><path fill="#1B1B1B" d="M16.5 3A1.5 1.5 0 0 0 15 1.5H3A1.5 1.5 0 0 0 1.5 3v12A1.5 1.5 0 0 0 3 16.5h12a1.5 1.5 0 0 0 1.5-1.5V3Zm1 12a2.5 2.5 0 0 1-2.5 2.5H3A2.5 2.5 0 0 1 .5 15V3A2.5 2.5 0 0 1 3 .5h12A2.5 2.5 0 0 1 17.5 3v12Z"/><path fill="#1B1B1B" d="M14.01 14.806a.553.553 0 0 1-.165-.396c.004-2.688-1.03-5.183-2.914-7.026-1.883-1.843-4.4-2.823-7.088-2.76a.549.549 0 0 1-.564-.554.59.59 0 0 1 .57-.582c2.99-.07 5.792 1.02 7.888 3.072 2.097 2.051 3.249 4.828 3.243 7.819a.589.589 0 0 1-.569.583.547.547 0 0 1-.401-.156Zm-2.63.234a.588.588 0 0 0 .57-.583c.007-2.177-.832-4.2-2.363-5.698C8.057 7.26 6.014 6.466 3.838 6.52a.588.588 0 0 0-.57.583.548.548 0 0 0 .566.554c1.872-.048 3.63.636 4.947 1.925 1.317 1.288 2.039 3.03 2.032 4.904a.55.55 0 0 0 .566.553Zm-3.035.078a.589.589 0 0 0 .572-.58 4.908 4.908 0 0 0-1.481-3.582 4.91 4.91 0 0 0-3.613-1.403.59.59 0 0 0-.568.585c0 .316.256.561.568.552a3.812 3.812 0 0 1 2.806 1.09 3.808 3.808 0 0 1 1.15 2.781.55.55 0 0 0 .566.557Z"/></svg>