<svg xmlns="http://www.w3.org/2000/svg" width="16" height="16" fill="none"><path fill="#000" d="M13.035 3.69h-.547V1.368a.407.407 0 0 0-.407-.406H4.139a.407.407 0 0 0-.408.406V3.69h-.547a2.072 2.072 0 0 0-2.075 2.063v4.437c0 .224.183.406.408.406h2.214v2.958c0 .225.182.406.408.406h7.94a.406.406 0 0 0 .409-.406v-2.958H14.7a.407.407 0 0 0 .408-.406V5.754c0-1.137-.93-2.063-2.074-2.063ZM4.547 1.774h7.125V3.69H4.547V1.773Zm7.125 11.376H4.547V8.602h7.125v4.547Zm2.621-3.363H12.49V8.602h.596a.407.407 0 1 0 0-.811H3.135a.407.407 0 1 0 0 .811h.597v1.184H1.926V5.754c0-.69.565-1.251 1.259-1.251h9.85c.694 0 1.258.561 1.258 1.251v4.032Z"/><path fill="#000" d="M4.11 6.461c0 .667-1 .667-1 0s1-.667 1 0ZM10.519 9.367H5.558a.51.51 0 0 0-.52.5c0 .276.232.5.52.5h4.96a.51.51 0 0 0 .52-.5.51.51 0 0 0-.52-.5ZM10.519 11.367H5.558a.51.51 0 0 0-.52.5c0 .276.232.5.52.5h4.96a.51.51 0 0 0 .52-.5.51.51 0 0 0-.52-.5Z"/></svg>