<svg xmlns="http://www.w3.org/2000/svg" width="18" height="18" fill="none"><path fill="#1B1B1B" d="M16.5 3A1.5 1.5 0 0 0 15 1.5H3A1.5 1.5 0 0 0 1.5 3v12A1.5 1.5 0 0 0 3 16.5h12a1.5 1.5 0 0 0 1.5-1.5V3ZM5.167 13.667V5a.5.5 0 0 1 .827-.378l4 3.467.07.073a.5.5 0 0 1-.642.74l-.083-.057-3.172-2.75v7.572a.5.5 0 0 1-1 0ZM11.833 5a.5.5 0 0 1 1 0v8.667a.5.5 0 0 1-.792.405l-4-2.888-.076-.068a.5.5 0 0 1 .661-.744l3.207 2.316V5ZM17.5 15a2.5 2.5 0 0 1-2.5 2.5H3A2.5 2.5 0 0 1 .5 15V3A2.5 2.5 0 0 1 3 .5h12A2.5 2.5 0 0 1 17.5 3v12Z"/></svg>