<svg xmlns="http://www.w3.org/2000/svg" width="16" height="16" fill="none"><path fill="#1B1B1B" d="M14.17 3.44A6.928 6.928 0 1 1 3.264 11.99a.533.533 0 1 1 .839-.658 5.884 5.884 0 1 0-1.207-4.246s-.077.117-.308.298l-.81-.098.095-.526A6.922 6.922 0 0 1 14.169 3.44Z"/><path fill="#1B1B1B" d="m.486 5.994 4.531-.29a.289.289 0 0 1 .252.458L3.177 9.026a.289.289 0 0 1-.442.029L.295 6.48a.289.289 0 0 1 .191-.486Z"/><path stroke="#1B1B1B" stroke-linecap="round" stroke-linejoin="round" d="M8 5v4h4"/></svg>