<svg xmlns="http://www.w3.org/2000/svg" width="16" height="16" fill="none"><path fill="#1B1B1B" d="M3.098 3.297a.634.634 0 0 0-.634.638v9.543c0 1.046.86 1.907 1.907 1.907h7.639c1.046 0 1.907-.86 1.907-1.907V3.935a.637.637 0 0 0-.635-.638H3.098Zm.638 1.272h8.907v8.909a.623.623 0 0 1-.634.634H4.371a.623.623 0 0 1-.634-.634V4.569Z"/><path fill="#1B1B1B" d="M1.825 3.3a.636.636 0 0 0 0 1.272h12.731a.638.638 0 0 0 0-1.272H1.825Z"/><path fill="#1B1B1B" d="M5.644.117c-1.047 0-1.908.86-1.908 1.907v1.911a.637.637 0 0 0 1.274 0V2.024c0-.359.275-.634.634-.634h5.093c.359 0 .634.275.634.634v1.911a.64.64 0 0 0 .639.634.636.636 0 0 0 .634-.634V2.024c0-1.047-.861-1.907-1.908-1.907H5.644ZM6.283 5.845a.64.64 0 0 0-.639.634v5.725a.64.64 0 0 0 1.088.45.635.635 0 0 0 .185-.45V6.479a.636.636 0 0 0-.634-.634ZM10.102 5.845a.64.64 0 0 0-.639.634v5.725a.64.64 0 0 0 1.088.45.632.632 0 0 0 .185-.45V6.479a.636.636 0 0 0-.634-.634Z"/></svg>