<svg xmlns="http://www.w3.org/2000/svg" width="16" height="16" fill="none"><g fill="#1B1B1B" clip-path="url(#a)"><path d="M.35 6.5V1L.363.87A.65.65 0 0 1 1 .35h6l.13.013a.65.65 0 0 1 0 1.274L7 1.65H1.65V6.5a.65.65 0 0 1-1.3 0ZM15.65 10v5.5l-.013.13a.65.65 0 0 1-.637.52H9l-.13-.013a.65.65 0 0 1 0-1.274L9 14.85h5.35V10a.65.65 0 0 1 1.3 0Z"/><path d="M1.063 1.019a.65.65 0 0 1 .82-.044l.098.088 5 5.5.079.106a.65.65 0 0 1-.943.856l-.098-.088-5-5.5-.079-.106a.65.65 0 0 1 .123-.812ZM9.063 9.019a.65.65 0 0 1 .82-.044l.098.088 5 5.5.079.106a.65.65 0 0 1-.943.856l-.098-.088-5-5.5-.079-.106a.65.65 0 0 1 .123-.812Z"/></g><defs><clipPath id="a"><path fill="#fff" d="M0 0h16v16H0z"/></clipPath></defs></svg>