<svg xmlns="http://www.w3.org/2000/svg" width="24" height="24" fill="none"><path fill="#9C8C73" d="M1.4 22.116c1.812 1.632 13.968-5.604 15.768-8.652.864-1.464-.156-3.612-1.824-5.328 1.896-1.26 3.564 2.664 5.148 1.836.72-.384 1.188-1.572.84-2.304-.624-1.296-2.7-1.296-4.104-1.452.996-.24 3.384-1.26 3.432-2.7.048-1.104-1.356-2.364-2.46-2.232-1.452.168-1.98 2.256-2.472 3.6-.06-.852-.24-2.724-1.176-3.54-1.248-1.092-2.748-.06-2.784 1.26-.048 1.596 3.384 2.484 2.304 4.404C12.248 5.604 10.1 4.836 8.72 5.64c-.588.372-1.26 1.092-1.956 2.028 1.068 1.128 2.544 2.484 3.708 3.264.24.168.312.504.132.744a.53.53 0 0 1-.744.144c-1.188-.804-2.64-2.136-3.72-3.252a32.183 32.183 0 0 0-1.608 2.676c1.02 1.032 2.316 2.196 3.348 2.892.24.168.3.504.132.744a.541.541 0 0 1-.756.144c-1.02-.696-2.232-1.776-3.252-2.784C1.88 16.428.32 21.156 1.4 22.116Z"/></svg>