<svg xmlns="http://www.w3.org/2000/svg" width="16" height="16" fill="none"><path fill="#1B1B1B" d="M4.406 1.342A5.53 5.53 0 0 1 8 0c2.69 0 4.923 2 5.166 4.579C14.758 4.804 16 6.137 16 7.773c0 1.796-1.498 3.226-3.313 3.226H10a.5.5 0 0 1 0-1h2.688C13.979 10 15 8.988 15 7.773c0-1.216-1.02-2.228-2.313-2.228h-.5v-.5C12.188 2.825 10.328 1 8 1a4.53 4.53 0 0 0-2.941 1.1c-.757.652-1.153 1.438-1.153 2.055v.448l-.445.049C2.064 4.805 1 5.952 1 7.318c0 1.467 1.23 2.681 2.781 2.681H6a.5.5 0 1 1 0 1H3.781C1.708 11 0 9.366 0 7.318c0-1.763 1.266-3.223 2.942-3.593.143-.863.698-1.723 1.464-2.383Z"/><path fill="#1B1B1B" d="M7.646 3.206a.5.5 0 0 1 .708 0l3 3a.5.5 0 1 1-.708.708L8.5 4.767v9.792a.5.5 0 1 1-1 0V4.767L5.354 6.914a.5.5 0 0 1-.708-.708l3-3Z"/></svg>