<svg xmlns="http://www.w3.org/2000/svg" width="16" height="16" fill="none" viewBox="0 0 16 16"><path fill="#1b1b1b" fill-rule="evenodd" d="M15.784 6.009q-.23-.223-.472-.433a11 11 0 0 0-2.043-1.398l-.946 1.065a9.7 9.7 0 0 1 2.465 1.738.72.72 0 0 0 .967.037.672.672 0 0 0 .029-1.01M12.868 7.66a7.9 7.9 0 0 0-1.772-1.033l-.975 1.098c.845.288 1.62.747 2.273 1.347a.71.71 0 0 0 .938.013.667.667 0 0 0 .024-1.014 8 8 0 0 0-.488-.41m-1.966 2.473a4.6 4.6 0 0 0-2.092-.93l-1.172 1.319c.846-.1 1.697.139 2.36.663a.69.69 0 0 0 .875-.005l.05-.044h.001a.625.625 0 0 0-.021-1.003M8 12.26c-.405 0-.79.171-1.057.47a1.34 1.34 0 0 0-.347.862c-.009.761.606 1.388 1.382 1.408.375.007.737-.135 1.005-.392a1.342 1.342 0 0 0 .073-1.878A1.42 1.42 0 0 0 8 12.26m1.223-4.772 1.03-1.162 1.271-1.431.968-1.09 1.482-1.67a.675.675 0 0 0-.066-.966.716.716 0 0 0-.991.065L11.082 3.3h.001a11 11 0 0 0-1.679-.34c-.932-.12-1.876-.12-2.808 0a11.1 11.1 0 0 0-6.38 3.049.672.672 0 0 0 .03 1.01.72.72 0 0 0 .966-.039q.263-.255.545-.491h.001a9.7 9.7 0 0 1 4.838-2.15 9.8 9.8 0 0 1 3.46.117L8.661 6.03a8 8 0 0 0-.66-.03H8q-.708.002-1.404.126a7.87 7.87 0 0 0-3.952 1.947.666.666 0 0 0 .023 1.013c.27.231.675.226.939-.012a6.46 6.46 0 0 1 3.84-1.677l-5.024 5.66a.68.68 0 0 0 .07.97.71.71 0 0 0 .988-.069l2.388-2.691L7.756 9.14z" clip-rule="evenodd"/></svg>