<svg xmlns="http://www.w3.org/2000/svg" width="16" height="16" fill="none"><path fill="#1B1B1B" d="M1.123 3h11.609c.31 0 .591.125.795.326l.015.016c.194.2.315.472.315.768v.15h1.017c.31 0 .59.124.794.326a1.1 1.1 0 0 1 .331.785v1.38c0 .14-.115.254-.258.254-.314 0-.6.126-.805.33a1.115 1.115 0 0 0 0 1.59c.206.203.491.33.806.33.142 0 .258.114.258.254v1.38c0 .306-.127.584-.33.785l-.016.015a1.127 1.127 0 0 1-.778.311H3.268c-.31 0-.592-.125-.795-.326a1.1 1.1 0 0 1-.33-.784v-.15H1.125c-.31 0-.591-.125-.795-.325A1.101 1.101 0 0 1 0 9.629V8.25c0-.14.116-.255.258-.255.315 0 .6-.126.805-.329a1.116 1.116 0 0 0 0-1.59 1.144 1.144 0 0 0-.805-.33A.257.257 0 0 1 0 5.493v-1.38a1.124 1.124 0 0 1 1.125-1.11L1.123 3Zm6.959 4.311a1.258 1.258 0 0 1 0 1.796 1.293 1.293 0 0 1-1.82 0l-.014-.016a1.258 1.258 0 0 1 .014-1.778 1.29 1.29 0 0 1 .91-.373c.33 0 .659.123.91.371Zm-.14.898a.754.754 0 0 0-.225-.537.774.774 0 0 0-1.09 0 .75.75 0 0 0-.011 1.064l.012.01a.774.774 0 0 0 1.09 0 .753.753 0 0 0 .224-.537ZM5.368 4.633l.016.016a1.258 1.258 0 0 1-.014 1.778l-.016.016a1.29 1.29 0 0 1-1.801-.014 1.256 1.256 0 0 1-.002-1.795c.252-.249.58-.373.91-.373.328 0 .656.123.907.372Zm-.364.36a.773.773 0 0 0-1.09 0 .752.752 0 0 0 0 1.075.775.775 0 0 0 1.078.012l.01-.012a.752.752 0 0 0 .013-1.064l-.012-.011h.001Zm2.597-.247c.1-.1.264-.1.365 0 .1.1.1.261 0 .36L4.224 8.803c-.1.1-.264.1-.365 0-.1-.1-.1-.261 0-.36l3.742-3.696Zm6.254.024v.72c0 .14-.115.255-.258.255-.314 0-.6.126-.805.33a1.115 1.115 0 0 0 0 1.59c.206.202.49.328.805.328.143 0 .258.115.258.255v1.38c0 .305-.127.583-.33.785a1.13 1.13 0 0 1-.795.325H2.656v.15a.611.611 0 0 0 .609.6h11.608c.162 0 .31-.063.42-.165l.01-.011a.596.596 0 0 0 .179-.425V9.742a1.656 1.656 0 0 1-.912-.458 1.623 1.623 0 0 1 0-2.311c.242-.24.558-.404.912-.459V5.37a.61.61 0 0 0-.609-.601h-1.018v.002ZM12.73 3.51H1.122a.613.613 0 0 0-.43.176.594.594 0 0 0-.18.424v1.145c.354.055.671.22.913.459a1.62 1.62 0 0 1 0 2.31 1.656 1.656 0 0 1-.912.46v1.143c0 .166.068.316.179.425.11.109.262.177.43.177H12.73c.168 0 .32-.068.43-.177a.597.597 0 0 0 .18-.425V8.483a1.656 1.656 0 0 1-.913-.458 1.62 1.62 0 0 1 0-2.311c.242-.24.559-.404.912-.459V4.11a.595.595 0 0 0-.167-.413l-.012-.01a.61.61 0 0 0-.43-.177Z"/><path fill="#1B1B1B" d="M10.439 4.16a.242.242 0 0 1 .346 0c.046.046.071.11.071.176v.875c0 .066-.025.13-.071.177a.242.242 0 0 1-.346 0 .253.253 0 0 1-.071-.177v-.875c0-.066.025-.13.07-.177ZM10.44 6.066a.242.242 0 0 1 .345 0c.046.047.072.11.072.177V7.2c0 .067-.026.13-.072.177a.242.242 0 0 1-.346 0 .253.253 0 0 1-.071-.177v-.956c0-.066.025-.13.071-.177ZM10.44 8.243a.242.242 0 0 1 .345 0c.046.047.072.11.072.176v1.073c0 .067-.026.13-.071.177a.242.242 0 0 1-.346 0 .253.253 0 0 1-.072-.177V8.42c0-.066.025-.13.071-.176Z"/></svg>