<svg xmlns="http://www.w3.org/2000/svg" width="16" height="16" fill="none" viewBox="0 0 16 16"><path fill="#1b1b1b" fill-rule="evenodd" d="M12.888 4.373c0-1.205-.912-2.191-2.038-2.191s-2.038.986-2.038 2.19c0 1.207.912 2.183 2.038 2.183s2.038-.976 2.038-2.182m1.112 0C14 2.51 12.59 1 10.85 1S7.7 2.51 7.7 4.373c0 .717.21 1.382.565 1.93l-6.102 6.534a.625.625 0 0 0 0 .841.53.53 0 0 0 .786 0l.834-.892q.021.03.047.058l.918.982a.53.53 0 0 0 .786 0 .625.625 0 0 0 0-.842l-.917-.982a1 1 0 0 0-.055-.051l.545-.584.02.023.525.56a.53.53 0 0 0 .786 0 .625.625 0 0 0 0-.84l-.524-.563-.021-.02 3.16-3.383c.51.38 1.129.602 1.797.602 1.74 0 3.15-1.51 3.15-3.373" clip-rule="evenodd"/></svg>