<svg xmlns="http://www.w3.org/2000/svg" width="16" height="16" fill="none"><g fill="#1B1B1B" clip-path="url(#a)"><path d="M15.914 1.675a.406.406 0 0 0-.262-.164L7.324.036a.432.432 0 0 0-.476.328l-.64 3.64H.833c-.23 0-.41.18-.41.409v10.131c0 .197.115.377.279.476.18.098.393.082.557-.033l.984-.656 1.114.738a.492.492 0 0 0 .59 0l1.115-.738 1.115.738c.18.114.41.114.607 0l1.114-.738.984.656a.563.563 0 0 0 .557.033.532.532 0 0 0 .28-.476v-3.59l.95.918c.164.148.393.18.59.098l1.23-.54.852.82a.52.52 0 0 0 .541.114.54.54 0 0 0 .36-.41l1.755-9.967a.43.43 0 0 0-.082-.312ZM8.88 14.036l-.705-.475a.549.549 0 0 0-.59 0l-1.115.737-1.115-.737a.577.577 0 0 0-.606 0l-1.115.737-1.115-.737a.491.491 0 0 0-.59 0l-.705.459V4.84h7.64v9.196h.016Zm4.64-2.738-.607-.573a.52.52 0 0 0-.377-.148.505.505 0 0 0-.213.05l-1.23.54-.967-.934a.529.529 0 0 0-.426-.148V8.888l2.492.443h.065a.39.39 0 0 0 .394-.344.422.422 0 0 0-.328-.476l-2.64-.459v-.934l2.804.492h.065a.39.39 0 0 0 .394-.345.422.422 0 0 0-.328-.475l-2.935-.525v-.934l.951.164h.066a.39.39 0 0 0 .393-.344.432.432 0 0 0-.328-.476l-1.098-.197V4.38c0-.23-.18-.41-.41-.41H7.045l.54-3.098L15.112 2.2l-1.59 9.098Z"/><path d="m12.31 5.804-.033.213c-.016.066.033.115.082.131l.262.05c.066.016.115-.033.132-.083l.033-.213c.196 0 .377-.049.508-.164a.747.747 0 0 0 .278-.475c.017-.05.017-.115.017-.164 0-.05 0-.098-.017-.131 0-.05-.016-.082-.049-.131-.016-.033-.033-.082-.065-.099-.017-.032-.05-.065-.082-.098a.432.432 0 0 0-.099-.082c-.032-.033-.065-.05-.114-.082-.05-.033-.099-.05-.132-.082-.032-.016-.082-.05-.147-.082a1.048 1.048 0 0 1-.263-.164.186.186 0 0 1-.049-.131c.017-.05.033-.082.066-.098a.369.369 0 0 1 .197-.017c.147.033.311.115.459.246.049.033.098.033.147 0l.262-.23a.125.125 0 0 0 .033-.081.125.125 0 0 0-.033-.082c-.065-.066-.13-.131-.229-.197a1.557 1.557 0 0 0-.279-.164l.05-.262c.016-.066-.033-.115-.082-.131l-.263-.05c-.065-.016-.114.033-.13.082l-.05.246a.847.847 0 0 0-.508.148.747.747 0 0 0-.279.475c-.016.05-.016.099-.016.131 0 .05 0 .082.016.132.016.032.016.082.033.114l.049.099c.016.032.05.065.066.082.016.032.049.049.082.082.032.032.065.049.098.065.033.017.065.05.115.066.032.016.082.049.114.065.033.017.066.033.115.066.05.016.082.05.115.066s.066.032.098.065c.033.016.05.033.066.05.016.016.033.032.033.048 0 .017.016.033.016.05v.049a.19.19 0 0 1-.082.115c-.115.065-.311.016-.492-.099a.937.937 0 0 1-.23-.213c-.016-.016-.048-.033-.081-.05-.033 0-.066 0-.082.034l-.262.23c-.05.032-.05.098-.017.147.164.262.377.41.623.508ZM8.798 3.417l2.148.378h.065c.197 0 .36-.148.41-.345.033-.23-.115-.442-.328-.475l-2.147-.377c-.214-.033-.443.115-.476.328-.033.246.115.459.328.491ZM6.568 9.306v.23c0 .065.05.114.115.114h.279c.065 0 .114-.049.114-.115v-.213a.786.786 0 0 0 .476-.246.718.718 0 0 0 .196-.524c0-.05 0-.115-.016-.164-.016-.05-.016-.099-.033-.131a.264.264 0 0 0-.065-.115c-.033-.033-.05-.066-.082-.098-.033-.033-.066-.05-.099-.082-.032-.033-.082-.05-.114-.066-.033-.016-.082-.033-.132-.066l-.147-.049c-.05-.016-.098-.032-.164-.049-.131-.05-.23-.082-.279-.115-.049-.032-.065-.065-.065-.114 0-.05.016-.082.049-.115a.294.294 0 0 1 .18-.05c.164 0 .328.05.492.165.05.032.115.016.148-.017l.213-.278c.016-.017.033-.05.016-.082 0-.033-.016-.05-.05-.066l-.245-.148a1.042 1.042 0 0 0-.295-.098v-.262a.112.112 0 0 0-.115-.115h-.278a.112.112 0 0 0-.115.115v.23a.786.786 0 0 0-.476.245.705.705 0 0 0-.196.508c0 .05 0 .099.016.132 0 .049.016.082.033.13l.049.099c.016.033.05.066.082.098.033.033.05.05.082.066.033.016.065.05.098.066l.099.049c.032.016.065.033.114.049.05.016.082.033.115.033.033.016.082.016.131.032.05.017.099.033.131.05l.099.049c.033.016.049.033.065.033l.05.049c.016.016.016.033.016.049v.05a.15.15 0 0 1-.066.13c-.098.082-.295.066-.491-.016a.88.88 0 0 1-.263-.164.125.125 0 0 0-.082-.033c-.032 0-.049.017-.082.033l-.23.279c-.032.049-.032.114.017.147.213.197.443.312.705.36ZM2.64 7.515h1.728c.23 0 .41-.18.41-.41 0-.229-.18-.41-.41-.41H2.64c-.23 0-.41.181-.41.41 0 .214.18.41.41.41ZM2.64 9.652h1.728c.23 0 .41-.18.41-.41 0-.23-.18-.41-.41-.41H2.64c-.23 0-.41.18-.41.41 0 .213.18.41.41.41ZM2.94 11.788h4.1c.23 0 .41-.18.41-.41 0-.229-.18-.41-.41-.41h-4.1c-.23 0-.41.181-.41.41 0 .23.18.41.41.41Z"/></g><defs><clipPath id="a"><path fill="#fff" d="M0 0h16v16H0z"/></clipPath></defs></svg>