<svg xmlns="http://www.w3.org/2000/svg" width="16" height="16" fill="none"><path fill="#1B1B1B" d="M11.77 4.23A2.728 2.728 0 0 0 9.09 2H4.728A2.727 2.727 0 0 0 2 4.727v4.364a2.727 2.727 0 0 0 2.23 2.678A2.727 2.727 0 0 0 6.91 14h4.363A2.726 2.726 0 0 0 14 11.273V6.909a2.727 2.727 0 0 0-2.23-2.678ZM3.09 9.09V4.728a1.636 1.636 0 0 1 1.637-1.636h4.364a1.636 1.636 0 0 1 1.636 1.636v4.364a1.636 1.636 0 0 1-1.636 1.636H4.727a1.636 1.636 0 0 1-1.636-1.636Zm9.82 2.183a1.636 1.636 0 0 1-1.637 1.636H6.909a1.637 1.637 0 0 1-1.538-1.09h3.72a2.728 2.728 0 0 0 2.727-2.728V5.37a1.636 1.636 0 0 1 1.091 1.538v4.364Z"/></svg>