<svg xmlns="http://www.w3.org/2000/svg" width="16" height="16" fill="none" viewBox="0 0 16 16"><path fill="#1b1b1b" d="M5.961 9.278h4.088c.844 0 1.531-.687 1.531-1.532V5.151a1.53 1.53 0 0 0-1.453-1.524V2.623C10.127 1.453 9.175.5 8.005.5s-2.123.952-2.123 2.123v1.003A1.53 1.53 0 0 0 4.43 5.15v2.595c0 .846.687 1.533 1.531 1.533M8 1.5c.676 0 1.231.558 1.231 1.234v.885H6.778v-.885A1.23 1.23 0 0 1 8 1.5m-2.5 4c0-.35 0-.781.547-.781h4.002c.451 0 .53.43.53.781v2c0 .35-.089.828-.618.828H6.07c-.462 0-.571-.478-.571-.828zM13.553 10.543H2.602C1.547 10.543 1 11.197 1 12v2.117c0 .804.653 1.458 1.457 1.458h11.096c.803 0 1.457-.654 1.457-1.457V12c0-.804-.653-1.457-1.457-1.457M14 14.118c0 .308-.138.482-.447.482H2.457c-.31 0-.457-.174-.457-.482V12c0-.309.293-.49.602-.49h10.951c.31 0 .447.181.447.49z"/><path fill="#1b1b1b" d="M4.653 13.806a.652.652 0 1 0 0-1.306.652.652 0 1 0 0 1.306M8 13.806A.652.652 0 1 0 8 12.5a.652.652 0 1 0 0 1.306M11.653 13.806a.652.652 0 1 0 0-1.306.652.652 0 1 0 0 1.306"/></svg>