<svg xmlns="http://www.w3.org/2000/svg" width="16" height="16" fill="none"><path fill="#1B1B1B" d="M13.143 3H2.857C1.28 3 0 4.232 0 5.75v5.5C0 12.768 1.28 14 2.857 14h10.286C14.72 14 16 12.768 16 11.25v-5.5C16 4.232 14.72 3 13.143 3ZM2.857 4.1h10.286c.943 0 1.714.743 1.714 1.65v.275H1.143V5.75c0-.907.771-1.65 1.714-1.65Zm10.286 8.8H2.857c-.943 0-1.714-.742-1.714-1.65V7.125h13.714v4.125c0 .908-.771 1.65-1.714 1.65Z"/><path fill="#1B1B1B" d="M10.591 9c.332 0 .647.1.909.265A1.57 1.57 0 0 1 12.409 9C13.283 9 14 9.68 14 10.508c0 .83-.717 1.492-1.591 1.492-.332 0-.647-.1-.909-.265-.262.165-.56.265-.909.265C9.717 12 9 11.32 9 10.492 9 9.662 9.717 9 10.591 9Zm1.38 2.22c.123.066.28.1.42.1.49 0 .892-.381.892-.829 0-.464-.402-.845-.892-.845a.862.862 0 0 0-.42.1c.123.215.21.464.21.729 0 .282-.07.53-.21.745Zm-1.38.117c.49 0 .892-.381.892-.845 0-.465-.402-.846-.892-.846s-.892.381-.892.845c0 .465.402.846.892.846ZM5 8.5l.1.01a.5.5 0 0 1 0 .98L5 9.5H3a.5.5 0 0 1 0-1h2ZM7 10.5a.5.5 0 0 1 0 1H3a.5.5 0 0 1 0-1h4Z"/></svg>