<svg xmlns="http://www.w3.org/2000/svg" width="16" height="16" fill="none"><path fill="#000" d="M9.951 15c-1.058 0-2.108-.347-2.927-1.029a26.112 26.112 0 0 1-3.52-3.553A24.78 24.78 0 0 1 .811 6.37C-.1 4.65.463 2.58 2.152 1.447l.168-.113c.402-.27.897-.383 1.393-.314a1.9 1.9 0 0 1 1.23.67l1.488 1.825c.615.755.44 1.823-.392 2.38l-.661.444A6.543 6.543 0 0 0 6.52 8.394a7.198 7.198 0 0 0 1.84 1.597l.655-.447c.403-.27.899-.382 1.393-.316.496.068.934.306 1.23.671l1.488 1.825c.615.754.44 1.822-.393 2.38l-.168.113c-.782.523-1.701.782-2.616.782l.002.001ZM3.434 2.136c-.13 0-.26.035-.372.111l-.167.112c-1.206.81-1.608 2.29-.956 3.519a23.758 23.758 0 0 0 2.57 3.866 25.05 25.05 0 0 0 3.361 3.392c1.087.906 2.75.977 3.952.17l.169-.113a.533.533 0 0 0 .13-.793l-1.488-1.825a.637.637 0 0 0-.41-.224.678.678 0 0 0-.465.105l-.66.443c-.425.285-1.003.299-1.438.032A8.466 8.466 0 0 1 5.514 9.07a7.687 7.687 0 0 1-1.34-2.414c-.15-.45.034-.944.46-1.23l.66-.443a.533.533 0 0 0 .13-.793L3.936 2.365a.646.646 0 0 0-.502-.23Zm9.415 5.973c.26-2.177-1.48-4.14-3.882-4.376-.345-.032-.652.192-.69.503-.037.311.212.592.555.626 1.715.168 2.958 1.57 2.773 3.125-.037.311.211.591.554.625a.74.74 0 0 0 .068.004c.316 0 .588-.217.622-.507Zm2.488.244c.199-1.657-.327-3.285-1.48-4.583-1.151-1.3-2.791-2.114-4.619-2.294-.342-.033-.652.192-.69.503-.037.311.212.591.555.625 1.495.147 2.838.814 3.78 1.877.942 1.063 1.372 2.394 1.21 3.75-.037.312.211.592.555.626a.747.747 0 0 0 .068.003c.315 0 .587-.216.621-.507Z"/></svg>