<svg xmlns="http://www.w3.org/2000/svg" width="16" height="16" fill="none"><path fill="#1B1B1B" d="M14.7 8A6.7 6.7 0 1 0 8 14.7V16A8 8 0 1 1 8 0a8 8 0 0 1 0 16v-1.3c3.7 0 6.7-3 6.7-6.7Z"/><path fill="#1B1B1B" d="M7.513 6.36h1.954c.293 0 .533-.277.533-.616 0-.339-.24-.616-.533-.616h-.932v-.512c0-.339-.24-.616-.532-.616-.293 0-.533.277-.533.616v.518c-.81.03-1.465.795-1.465 1.738s.677 1.744 1.508 1.744h.974c.245 0 .442.228.442.512 0 .283-.197.511-.442.511H6.533c-.293 0-.533.278-.533.617 0 .339.24.616.533.616h.932v.512c0 .339.24.616.532.616.293 0 .533-.277.533-.616v-.518c.81-.03 1.465-.795 1.465-1.738s-.677-1.744-1.508-1.744h-.974c-.245 0-.442-.228-.442-.512 0-.283.197-.511.442-.511Z"/></svg>