<svg xmlns="http://www.w3.org/2000/svg" width="16" height="16" fill="none"><path fill="#1B1B1B" d="M14.333 7.583S11.833 3 7.667 3C3.5 3 1 7.583 1 7.583s2.5 4.584 6.667 4.584c4.166 0 6.666-4.584 6.666-4.584Zm-12.356 0 .162-.24c.28-.4.691-.932 1.221-1.462C4.434 4.807 5.9 3.833 7.667 3.833c1.766 0 3.232.974 4.306 2.048a10.934 10.934 0 0 1 1.383 1.702 10.934 10.934 0 0 1-1.383 1.702c-1.074 1.075-2.54 2.048-4.306 2.048S4.434 10.36 3.36 9.286a10.946 10.946 0 0 1-1.383-1.703Z"/><path fill="#1B1B1B" d="M4.75 7.583a2.917 2.917 0 1 1 5.833 0 2.917 2.917 0 0 1-5.833 0Z"/></svg>