<svg xmlns="http://www.w3.org/2000/svg" width="16" height="16" fill="none"><g fill="#1B1B1B" fill-rule="evenodd" clip-path="url(#a)" clip-rule="evenodd"><path d="M16 11.565a.574.574 0 0 1-.574.573H8.732a.574.574 0 1 1 0-1.147h6.12V1.147h-9.85v6.595a.574.574 0 0 1-1.147 0V.574c0-.317.257-.574.574-.574h10.997c.317 0 .574.257.574.574v10.99Z"/><path d="M8.027 14.95a.574.574 0 0 1-.573.574l-6.235.009a.574.574 0 0 1-.575-.573L.636 8.728a.574.574 0 0 1 1.148-.002l.006 4.848 8.29-8.308a.574.574 0 0 1 .813.81l-8.29 8.308 4.85-.007c.317 0 .574.256.574.573Z"/></g><defs><clipPath id="a"><path fill="#fff" d="M0 0h16v16H0z"/></clipPath></defs></svg>