<svg xmlns="http://www.w3.org/2000/svg" width="16" height="16" fill="none"><path fill="#1B1B1B" d="M11.491.5H4.509C3.122.5 2 1.638 2 3.045v9.91c0 .68.265 1.328.732 1.802a2.494 2.494 0 0 0 1.777.743l5.346-.016c.67 0 1.293-.268 1.776-.743l1.637-1.66A2.566 2.566 0 0 0 14 11.28V3.045C14 1.638 12.878.5 11.491.5ZM4.509 14.33c-.358 0-.701-.142-.966-.395-.25-.253-.405-.6-.405-.98v-9.91c0-.759.608-1.375 1.356-1.375h6.981c.748 0 1.356.616 1.356 1.375v7.808h-1.839c-.872 0-1.574.711-1.574 1.597v1.88H4.51Zm6.312-.395c-.063.063-.14.127-.234.19v-1.676c0-.237.187-.41.405-.41h1.637a1.25 1.25 0 0 1-.187.237l-1.621 1.66Z"/><path fill="#1B1B1B" d="M10.456 4.5H5.529c-.298 0-.537.258-.537.581 0 .323.239.581.537.581h4.927c.298 0 .536-.258.536-.58 0-.324-.238-.582-.536-.582ZM10.456 8.338H5.529c-.298 0-.537.258-.537.58 0 .324.239.582.537.582h4.927c.298 0 .536-.258.536-.581 0-.323-.238-.581-.536-.581Z"/></svg>