<svg xmlns="http://www.w3.org/2000/svg" width="16" height="16" fill="none"><path fill="#1B1B1B" fill-rule="evenodd" d="M1.5.536C1.5.24 1.743 0 2.042 0h11.916c.3 0 .542.24.542.536v13.928c0 .198-.11.38-.287.473a.547.547 0 0 1-.558-.029l-2.676-1.787-2.676 1.787a.546.546 0 0 1-.622-.01l-2.66-1.914-2.66 1.914a.547.547 0 0 1-.565.044.535.535 0 0 1-.296-.478V.536Zm1.083.535v12.341l2.12-1.524a.547.547 0 0 1 .636 0l2.673 1.922 2.664-1.78a.547.547 0 0 1 .606 0l2.135 1.426V1.071H2.583Z" clip-rule="evenodd"/><path fill="#1B1B1B" fill-rule="evenodd" d="M4.5 3.5a.5.5 0 1 1 1 0 .5.5 0 0 1-1 0ZM4.5 6.5a.5.5 0 1 1 1 0 .5.5 0 0 1-1 0ZM4.5 9.5a.5.5 0 1 1 1 0 .5.5 0 0 1-1 0ZM6.5 3.5A.5.5 0 0 1 7 3h4a.5.5 0 0 1 0 1H7a.5.5 0 0 1-.5-.5ZM6.5 6.5A.5.5 0 0 1 7 6h4a.5.5 0 0 1 0 1H7a.5.5 0 0 1-.5-.5ZM6.5 9.5A.5.5 0 0 1 7 9h4a.5.5 0 0 1 0 1H7a.5.5 0 0 1-.5-.5Z" clip-rule="evenodd"/></svg>