<svg xmlns="http://www.w3.org/2000/svg" width="16" height="16" fill="none"><path fill="#1B1B1B" d="M9.273 9.91a.636.636 0 1 0 0-1.274.636.636 0 0 0 0 1.273ZM6.727 7.364a.636.636 0 1 0 0-1.273.636.636 0 0 0 0 1.273ZM6.546 9.91a.455.455 0 0 1-.322-.778L9.127 6.23a.455.455 0 1 1 .643.643L6.868 9.776a.453.453 0 0 1-.322.133Z"/><path fill="#1B1B1B" d="M8 15a1.93 1.93 0 0 1-1.369-.566l-.665-.665a.853.853 0 0 0-.607-.251h-.941a1.94 1.94 0 0 1-1.936-1.936v-.942a.852.852 0 0 0-.252-.606l-.665-.666a1.94 1.94 0 0 1 0-2.737l.665-.666a.852.852 0 0 0 .252-.606v-.942a1.94 1.94 0 0 1 1.935-1.935h.942a.853.853 0 0 0 .606-.252l.666-.665a1.94 1.94 0 0 1 2.738 0l.665.665a.853.853 0 0 0 .607.251h.942a1.94 1.94 0 0 1 1.935 1.936v.942a.854.854 0 0 0 .252.606l.665.666a1.94 1.94 0 0 1 0 2.737l-.665.665a.855.855 0 0 0-.252.607v.942a1.94 1.94 0 0 1-1.935 1.935h-.942a.85.85 0 0 0-.607.252l-.665.665A1.93 1.93 0 0 1 8 15ZM8 2.077a.857.857 0 0 0-.607.251l-.665.664a1.924 1.924 0 0 1-1.368.567h-.942a.86.86 0 0 0-.858.858v.942a1.924 1.924 0 0 1-.567 1.368l-.666.666a.86.86 0 0 0 0 1.214l.665.665a1.924 1.924 0 0 1 .567 1.368v.942a.86.86 0 0 0 .859.858h.942a1.925 1.925 0 0 1 1.368.567l.665.665a.86.86 0 0 0 1.214 0l.666-.665a1.923 1.923 0 0 1 1.368-.567h.941a.86.86 0 0 0 .859-.858v-.942a1.924 1.924 0 0 1 .567-1.368l.665-.665a.86.86 0 0 0 0-1.214l-.665-.666a1.925 1.925 0 0 1-.567-1.368v-.941a.86.86 0 0 0-.858-.859h-.942a1.924 1.924 0 0 1-1.368-.566l-.666-.666A.857.857 0 0 0 8 2.077Z"/></svg>