<svg xmlns="http://www.w3.org/2000/svg" width="24" height="24" fill="none"><path fill="#9C8C73" d="M20.977 3.27 20.857 2l-1.21.403c-2.072.72-4.285.94-6.458.645a11.96 11.96 0 0 0-6.73.907 7.285 7.285 0 0 0-4.323 5.45 9.068 9.068 0 0 0 .393 4.615c.34-.768.737-1.508 1.189-2.216a9.925 9.925 0 0 1 4.1-3.456 11.244 11.244 0 0 1 5.099-1.008c-1.67.255-3.27.856-4.696 1.763a9.553 9.553 0 0 0-1.874 1.542 11.465 11.465 0 0 0-1.4 1.924 16.514 16.514 0 0 0-1.582 4.575A26.62 26.62 0 0 0 2.841 22h2.015a30.92 30.92 0 0 1 .595-4.353 9.32 9.32 0 0 0 4.554 1.119 11.083 11.083 0 0 0 4.312-.877c7.668-3.274 6.66-14.166 6.66-14.62Z"/></svg>