<svg xmlns="http://www.w3.org/2000/svg" width="16" height="16" fill="none"><path fill="#1B1B1B" d="M9.5 11.5a.5.5 0 0 1-.5.5H5a.5.5 0 0 1 0-1h4a.5.5 0 0 1 .5.5ZM9 9H5a.5.5 0 1 0 0 1h4a.5.5 0 1 0 0-1Zm4.5-4.421V11a1.502 1.502 0 0 1-1.5 1.5h-.5v1A1.502 1.502 0 0 1 10 15H4a1.502 1.502 0 0 1-1.5-1.5V5A1.502 1.502 0 0 1 4 3.5h.5v-1A1.502 1.502 0 0 1 6 1h4a.5.5 0 0 1 .358.151l3 3.079a.498.498 0 0 1 .142.349Zm-3-1.079a.5.5 0 0 0 .5.5h.738L10.5 2.73v.77Zm0 10v-6H9A1.502 1.502 0 0 1 7.5 6V4.5H4a.5.5 0 0 0-.5.5v8.5a.5.5 0 0 0 .5.5h6a.5.5 0 0 0 .5-.5ZM8.5 6a.5.5 0 0 0 .5.5h.738L8.5 5.23V6Zm4 5V5H11a1.502 1.502 0 0 1-1.5-1.5V2H6a.5.5 0 0 0-.5.5v1H8a.499.499 0 0 1 .358.151l3 3.079a.498.498 0 0 1 .142.349V11.5h.5a.5.5 0 0 0 .5-.5Z"/></svg>