<svg xmlns="http://www.w3.org/2000/svg" width="16" height="16" fill="none"><path fill="#000" d="M13.76 8a.48.48 0 0 1-.48.48H2.72a.48.48 0 1 1 0-.96h.96v-2.4h.96v2.4h.96v-2.4h.96v2.4h.96v-2.4h.96v2.4h.96v-2.4h.96v2.4h.96v-2.4h.96v2.4h.96a.48.48 0 0 1 .48.48ZM4.64 10.88h-.96V9.44h.96v1.44ZM12.32 10.88h-.96V9.44h.96v1.44ZM6.56 10.4H5.6v-.96h.96v.96ZM8.48 10.4h-.96v-.96h.96v.96ZM10.4 10.4h-.96v-.96h.96v.96ZM1.28 5.12V3.68c0-.794.646-1.44 1.44-1.44h1.44a.48.48 0 1 1 0 .96H2.72a.48.48 0 0 0-.48.48v1.44a.48.48 0 1 1-.96 0ZM14.72 3.68v1.44a.48.48 0 1 1-.96 0V3.68a.48.48 0 0 0-.48-.48h-1.44a.48.48 0 1 1 0-.96h1.44c.794 0 1.44.646 1.44 1.44ZM4.64 13.28a.48.48 0 0 1-.48.48H2.72c-.794 0-1.44-.646-1.44-1.44v-1.44a.48.48 0 1 1 .96 0v1.44c0 .265.215.48.48.48h1.44a.48.48 0 0 1 .48.48ZM14.72 10.88v1.44c0 .794-.646 1.44-1.44 1.44h-1.44a.48.48 0 1 1 0-.96h1.44a.48.48 0 0 0 .48-.48v-1.44a.48.48 0 1 1 .96 0Z"/></svg>