<svg xmlns="http://www.w3.org/2000/svg" width="16" height="16" fill="none"><path fill="#1B1B1B" d="M15 4.214v10.179c0 .886-.673 1.607-1.5 1.607h-11c-.827 0-1.5-.721-1.5-1.607V4.214c0-.886.673-1.607 1.5-1.607h11c.827 0 1.5.721 1.5 1.607Zm-1 3.214H2v6.965c0 .295.224.535.5.535h11c.276 0 .5-.24.5-.535V7.428Zm0-3.214c0-.295-.224-.536-.5-.536H12V4.75c0 .296-.224.536-.5.536s-.5-.24-.5-.536V3.678H6V4.75c0 .296-.224.536-.5.536S5 5.046 5 4.75V3.678H2.5c-.276 0-.5.24-.5.536v2.143h12V4.214Z"/><path stroke="#1B1B1B" d="M5.5 4V2c0-.333-.2-1-1-1s-1 .667-1 1v1.5M11.5 4V2c0-.333-.2-1-1-1s-1 .667-1 1v1.5"/><path fill="#1B1B1B" d="M10.063 10.25h-.376v-.375A1.877 1.877 0 0 0 7.813 8a1.877 1.877 0 0 0-1.875 1.875v.375h-.375a.375.375 0 0 0-.375.375v3c0 .207.167.375.375.375h4.5a.375.375 0 0 0 .374-.375v-3a.375.375 0 0 0-.374-.375Zm-3.376-.375a1.125 1.125 0 0 1 2.25 0v.375h-2.25v-.375Zm3 3.375h-3.75V11h3.75v2.25Z"/><path fill="#1B1B1B" d="M7.813 12.5a.375.375 0 1 0 0-.75.375.375 0 0 0 0 .75Z"/></svg>