<svg xmlns="http://www.w3.org/2000/svg" width="24" height="24" fill="none"><path fill="#9C8C73" d="M24 12c0-.775-.669-2.192-2.138-3.469a9.705 9.705 0 0 0-2.826-1.693.148.148 0 0 0-.184.073.89.89 0 0 1-.022.04l-.45.746a8.589 8.589 0 0 0 .004 8.615l.01.018.41.75a.187.187 0 0 0 .232.085C22.483 15.817 24 13.195 24 12Zm-4.402-.007a.75.75 0 1 1-.195-1.487.75.75 0 0 1 .195 1.487Z"/><path fill="#9C8C73" d="M15.724 12c0-1.778.47-3.525 1.363-5.062l.006-.01.216-.36a.187.187 0 0 0-.12-.281 13.325 13.325 0 0 0-1.841-.253.372.372 0 0 1-.201-.075c-.904-.687-2.696-1.889-4.522-2.198a.75.75 0 0 0-.844.946l.498 1.743a.187.187 0 0 1-.113.226c-1.728.642-3.215 1.817-4.3 2.712a.375.375 0 0 1-.472.003 14.548 14.548 0 0 0-.454-.346C3.082 7.688.899 7.509.807 7.502a.75.75 0 0 0-.79.91c.02.09.432 1.907 1.487 3.356a.38.38 0 0 1 0 .448C.449 13.666.037 15.482.018 15.573a.75.75 0 0 0 .789.91c.093-.007 2.275-.188 4.13-1.542.152-.111.3-.224.444-.338a.375.375 0 0 1 .472.003c1.09.9 2.58 2.075 4.312 2.719a.187.187 0 0 1 .114.226l-.5 1.743a.75.75 0 0 0 .844.946c.804-.136 2.432-.603 4.502-2.195a.383.383 0 0 1 .204-.078c.618-.04 1.233-.123 1.839-.248a.188.188 0 0 0 .126-.274l-.211-.388A10.069 10.069 0 0 1 15.724 12Z"/></svg>