<svg xmlns="http://www.w3.org/2000/svg" width="24" height="24" fill="none"><path fill="#9C8C73" d="M21.725 3.598A.937.937 0 0 0 20.4 2.274l-3.442 3.433a.937.937 0 0 0 1.324 1.324l3.438-3.437.004.004Zm-7.793-.535a.627.627 0 0 0-.883 0l-.445.441a3.75 3.75 0 0 0 0 5.305l.406.406-1.191 1.191a4.989 4.989 0 0 0-1.426-2.921l-.441-.442a.627.627 0 0 0-.883 0l-.441.442a3.75 3.75 0 0 0 0 5.304l.406.406-1.192 1.192a4.988 4.988 0 0 0-1.425-2.922l-.442-.445a.627.627 0 0 0-.882 0l-.442.441a3.75 3.75 0 0 0 0 5.304l.406.407-2.69 2.69a1.252 1.252 0 0 0 1.769 1.77l2.69-2.69.477.476a3.75 3.75 0 0 0 5.305 0l.441-.442a.627.627 0 0 0 0-.883l-.441-.44a4.992 4.992 0 0 0-3.05-1.442l1.245-1.246.477.476a3.75 3.75 0 0 0 5.304 0l.442-.441a.627.627 0 0 0 0-.883l-.442-.441a4.992 4.992 0 0 0-3.05-1.442l1.246-1.246.476.477a3.751 3.751 0 0 0 5.305 0l.44-.445a.627.627 0 0 0 0-.883l-.44-.445a4.922 4.922 0 0 0-.641-.543l1.805-1.801A.937.937 0 0 0 20.4 6.024l-2.32 2.32a5.033 5.033 0 0 0-2.434.082c.238-.832.258-1.71.054-2.55l2.274-2.278a.937.937 0 0 0-1.324-1.324l-1.797 1.789a4.642 4.642 0 0 0-.484-.559l-.438-.441Z"/></svg>