<svg xmlns="http://www.w3.org/2000/svg" width="16" height="16" fill="none"><g fill="#1B1B1B" fill-rule="evenodd" clip-path="url(#a)" clip-rule="evenodd"><path d="M0 4.435c0-.317.257-.574.574-.574h6.694a.574.574 0 1 1 0 1.147h-6.12v9.844h9.85V8.258a.574.574 0 0 1 1.147 0v7.168a.574.574 0 0 1-.574.573H.574A.574.574 0 0 1 0 15.426V4.435Z"/><path d="M7.973 1.049c0-.317.256-.574.573-.574L14.78.467c.317 0 .574.255.575.572l.008 6.232a.574.574 0 0 1-1.148.001l-.006-4.847-8.29 8.308a.574.574 0 0 1-.813-.81l8.29-8.308-4.85.006a.574.574 0 0 1-.574-.572Z"/></g><defs><clipPath id="a"><path fill="#fff" d="M0 0h16v16H0z"/></clipPath></defs></svg>