<svg xmlns="http://www.w3.org/2000/svg" width="16" height="16" fill="none" viewBox="0 0 16 16"><path fill="#1b1b1b" d="M14.41 9.018a2.11 2.11 0 0 0-1.642-.601V7.1c.001-.908-.735-1.646-1.645-1.648H9.845v-2A2.96 2.96 0 0 0 8.364.895a2.97 2.97 0 0 0-2.96 0 2.96 2.96 0 0 0-1.48 2.558v2H2.644C1.735 5.455.999 6.193 1 7.1v6.75c0 .908.735 1.647 1.645 1.649h8.478a1.65 1.65 0 0 0 1.645-1.65v-1.315a2.073 2.073 0 0 0 1.641-3.517M4.936 3.453a1.947 1.947 0 0 1 3.897 0v2H4.936zm6.82 10.398a.636.636 0 0 1-.633.638H2.645a.636.636 0 0 1-.633-.638V7.1a.635.635 0 0 1 .633-.637h1.782c.001-.004 4.906.003 4.91 0h1.786a.635.635 0 0 1 .633.637v1.316H8.443a2.06 2.06 0 0 0 0 4.118h3.313zm1.197-2.327c-.36-.002-4.035.002-4.499 0a1.049 1.049 0 0 1-.01-2.096h4.51a1.049 1.049 0 0 1-.001 2.096m-2.258-.542a.506.506 0 0 1 0-1.012.506.506 0 0 1 0 1.011m1.796 0a.506.506 0 0 1 .001-1.012.506.506 0 0 1 0 1.011m-3.593 0a.506.506 0 0 1 0-1.012.506.506 0 0 1 0 1.011"/></svg>