<svg xmlns="http://www.w3.org/2000/svg" width="24" height="24" fill="none"><path fill="#9C8C73" d="M19.069 11.051a7.768 7.768 0 0 0-1.853-2.575l-.65-.597a.18.18 0 0 0-.291.074l-.291.834c-.181.523-.514 1.057-.986 1.582a.14.14 0 0 1-.091.045.124.124 0 0 1-.097-.034.131.131 0 0 1-.044-.107c.082-1.346-.32-2.863-1.2-4.515-.73-1.373-1.742-2.444-3.007-3.19l-.924-.543a.18.18 0 0 0-.268.163l.05 1.073c.033.733-.052 1.381-.253 1.92-.246.66-.6 1.272-1.05 1.822a6.61 6.61 0 0 1-1.063 1.03A7.882 7.882 0 0 0 4.81 10.75a7.774 7.774 0 0 0-.19 6.49 7.854 7.854 0 0 0 4.19 4.149c.97.406 1.998.612 3.06.612 1.061 0 2.09-.206 3.06-.61a7.791 7.791 0 0 0 2.501-1.67 7.737 7.737 0 0 0 2.307-5.52c0-1.09-.223-2.15-.668-3.149Z"/></svg>