<svg xmlns="http://www.w3.org/2000/svg" width="15" height="14" fill="none"><path fill="#000" fill-rule="evenodd" d="M2.178 7.667a.444.444 0 0 0-.445.444v4.444c0 .246.2.445.445.445h4.444a.444.444 0 0 0 .445-.445V8.111a.444.444 0 0 0-.445-.445H2.178Zm.444.888h3.556v3.556H2.622V8.555ZM6.03 3.593a1.704 1.704 0 1 1-3.408 0 1.704 1.704 0 0 1 3.408 0Zm.888 0a2.593 2.593 0 1 1-5.185 0 2.593 2.593 0 0 1 5.185 0ZM9.067 12.556c0 .245.186.444.416.444h4.167c.23 0 .416-.199.416-.444V1.444c0-.245-.186-.444-.416-.444H9.483c-.23 0-.416.199-.416.444v11.112Zm.833-.445V1.89h3.333V12.11H9.9Z" clip-rule="evenodd"/></svg>