<svg xmlns="http://www.w3.org/2000/svg" width="16" height="16" fill="none"><path fill="#1B1B1B" d="M16 6.417C16 3.432 13.605 1 10.667 1c-1.739 0-3.28.856-4.256 2.167H1.6c-.88 0-1.6.73-1.6 1.625v1.083c0 .417.16.796.416 1.083A1.625 1.625 0 0 0 0 8.042v1.083c0 .417.16.796.416 1.083A1.625 1.625 0 0 0 0 11.292v1.083C0 13.269.72 14 1.6 14h8.533c.88 0 1.6-.731 1.6-1.625v-.65C14.165 11.221 16 9.033 16 6.417ZM1.067 9.125V8.042A.54.54 0 0 1 1.6 7.5h3.84c.16.802.501 1.538.97 2.167H1.6a.539.539 0 0 1-.533-.542Zm0-4.333A.54.54 0 0 1 1.6 4.25h4.181a5.443 5.443 0 0 0-.448 2.167H1.6a.54.54 0 0 1-.533-.542V4.792Zm9.6 7.583a.54.54 0 0 1-.534.542H1.6a.54.54 0 0 1-.533-.542v-1.083a.54.54 0 0 1 .533-.542h5.883a5.24 5.24 0 0 0 3.184 1.083v.542Zm0-1.625C8.315 10.75 6.4 8.805 6.4 6.417c0-2.389 1.915-4.334 4.267-4.334 2.352 0 4.266 1.945 4.266 4.334 0 2.388-1.914 4.333-4.266 4.333Z"/><path fill="#1B1B1B" d="M10.207 5.27h1.467c.22 0 .4-.208.4-.462s-.18-.462-.4-.462h-.7v-.384c0-.254-.18-.462-.399-.462-.22 0-.4.208-.4.462v.389c-.607.023-1.098.596-1.098 1.303s.507 1.308 1.13 1.308h.732c.183 0 .331.171.331.384s-.148.384-.331.384H9.473c-.22 0-.4.208-.4.462s.18.462.4.462h.699v.384c0 .254.18.462.4.462.219 0 .399-.208.399-.462v-.389c.607-.023 1.098-.596 1.098-1.303s-.507-1.308-1.13-1.308h-.732c-.183 0-.331-.171-.331-.384s.148-.384.332-.384Z"/></svg>