<svg xmlns="http://www.w3.org/2000/svg" width="16" height="16" fill="none"><path fill="#1B1B1B" d="M14.892 3.98a.466.466 0 0 0-.369-.182H4.34l-.541-2.434A.466.466 0 0 0 3.332 1H1.466a.466.466 0 0 0 0 .933H2.96l2.14 9.424a1.865 1.865 0 1 0 2.43 1.767 1.823 1.823 0 0 0-.262-.932h2.854c-.17.281-.26.604-.261.932a1.866 1.866 0 1 0 1.865-1.865H6.036L5.72 9.86h6.692a1.399 1.399 0 0 0 1.352-1.03l1.226-4.444a.466.466 0 0 0-.098-.406Zm-8.296 9.144a.932.932 0 1 1-1.865 0 .932.932 0 0 1 1.865 0Zm6.062 0a.932.932 0 1 1-1.864 0 .932.932 0 0 1 1.864 0Zm.205-4.542a.466.466 0 0 1-.466.345H5.505l-.933-4.196h9.34l-1.049 3.851Z"/></svg>