<svg xmlns="http://www.w3.org/2000/svg" width="24" height="24" fill="none"><path fill="#9C8C73" d="M18.73 2.118a.936.936 0 0 1 1.274.363l.187.34a4.682 4.682 0 0 1 .133 4.297A6.214 6.214 0 0 1 22 11.376c0 .722-.121 1.418-.348 2.062-.238.676-1.113.637-1.437-.004l-.457-.914a.944.944 0 0 0-.84-.52h-2.855a.935.935 0 0 1-.938-.937V7.938a.935.935 0 0 0-.938-.937h-.667c-.832 0-1.172-.934-.422-1.286a6.206 6.206 0 0 1 2.652-.59c1.105 0 2.14.286 3.04.79a2.81 2.81 0 0 0-.235-2.18l-.188-.34a.936.936 0 0 1 .363-1.273v-.004ZM8.688 15.497l3.626-7.246h1.562v3.125c0 1.035.84 1.875 1.875 1.875h2.977l.933 1.867A16.934 16.934 0 0 1 6.031 22H3.734a1.734 1.734 0 0 1-.375-3.426l1.946-.434a4.999 4.999 0 0 0 3.386-2.644h-.004Z"/></svg>