<svg xmlns="http://www.w3.org/2000/svg" width="24" height="24" fill="none"><path fill="#9C8C73" fill-rule="evenodd" d="M1.293 1.293a1 1 0 0 1 1.414 0L8.494 7.08a.99.99 0 0 1 .028.027l7.613 7.614.015.015 6.557 6.557a1 1 0 0 1-1.414 1.414L18 19.414V20a3 3 0 0 1-3 3H9a3 3 0 0 1-3-3v-9.788a5 5 0 0 1 .539-2.259L1.293 2.707a1 1 0 0 1 0-1.414ZM8.086 9.5a3 3 0 0 0-.086.712v3.438a7.472 7.472 0 0 1 4.386.428c.145.06.292.114.44.162L8.086 9.5Zm3.528 6.422a7.472 7.472 0 0 0 3.453.56l-3.453-.56Zm3.453.56.933.932V20a1 1 0 0 1-1 1H9a1 1 0 0 1-1-1v-4.293a5.467 5.467 0 0 1 3.614.215M7 2a1 1 0 0 1 1-1h8a1 1 0 1 1 0 2v1.789a3 3 0 0 0 .504 1.664l.656.984a5 5 0 0 1 .84 2.775v1.131a1 1 0 1 1-2 0v-1.131a3 3 0 0 0-.504-1.665l-.656-.984A5 5 0 0 1 14 4.789V3h-4v.343a1 1 0 0 1-2 0V3a1 1 0 0 1-1-1Z" clip-rule="evenodd"/></svg>