<svg xmlns="http://www.w3.org/2000/svg" width="18" height="18" fill="none"><path fill="#1B1B1B" d="M15 .5A2.5 2.5 0 0 1 17.5 3v12a2.5 2.5 0 0 1-2.5 2.5H3A2.5 2.5 0 0 1 .5 15V3A2.5 2.5 0 0 1 3 .5h12ZM3.985 8.685a.585.585 0 0 0-.562.58c0 .312.254.555.562.546a3.777 3.777 0 0 1 2.78 1.08 3.773 3.773 0 0 1 1.14 2.755.544.544 0 0 0 .559.551.584.584 0 0 0 .567-.575 4.862 4.862 0 0 0-1.468-3.548 4.863 4.863 0 0 0-3.578-1.39ZM4 5.682a.583.583 0 0 0-.564.577.543.543 0 0 0 .56.549c1.855-.047 3.596.63 4.9 1.906 1.305 1.276 2.02 3.002 2.013 4.857a.544.544 0 0 0 .56.548.582.582 0 0 0 .565-.577c.008-2.157-.824-4.161-2.34-5.645C8.178 6.414 6.155 5.627 4 5.682Zm.012-3.004a.584.584 0 0 0-.566.576.543.543 0 0 0 .56.549c2.661-.063 5.154.908 7.02 2.733 1.865 1.825 2.89 4.297 2.885 6.96a.542.542 0 0 0 .562.547.583.583 0 0 0 .563-.58c.005-2.961-1.135-5.71-3.212-7.742-2.076-2.032-4.85-3.113-7.812-3.043Z"/></svg>