<svg xmlns="http://www.w3.org/2000/svg" width="16" height="16" fill="none"><path fill="#000" d="M12.293 12.282a.34.34 0 0 1 .104-.242c1.18-1.151 1.83-2.675 1.83-4.29 0-1.616-.65-3.14-1.83-4.29a.336.336 0 0 1 0-.485.362.362 0 0 1 .5 0c1.313 1.28 2.036 2.976 2.036 4.775 0 1.798-.723 3.494-2.036 4.774a.36.36 0 0 1-.5 0 .336.336 0 0 1-.104-.242Zm-1.23-1.053a.36.36 0 0 0 .5 0 4.819 4.819 0 0 0 0-6.958.36.36 0 0 0-.5 0 .336.336 0 0 0 0 .486 4.147 4.147 0 0 1 0 5.987.337.337 0 0 0 0 .485ZM9.728 9.933a.36.36 0 0 0 .5.002 3.01 3.01 0 0 0 .934-2.185 3.01 3.01 0 0 0-.935-2.185.362.362 0 0 0-.5.002.336.336 0 0 0 .002.485c.468.45.726 1.053.726 1.697 0 .645-.258 1.247-.726 1.697a.337.337 0 0 0-.001.487Z"/><path fill="#1B1B1B" fill-rule="evenodd" d="M1 2.875C1 1.839 1.84 1 2.875 1h3.75C7.661 1 8.5 1.84 8.5 2.875v8.25C8.5 12.161 7.66 13 6.625 13h-3.75A1.875 1.875 0 0 1 1 11.125v-8.25ZM2.875 1.75c-.621 0-1.125.504-1.125 1.125v8.25c0 .621.504 1.125 1.125 1.125h3.75c.621 0 1.125-.504 1.125-1.125v-8.25c0-.621-.504-1.125-1.125-1.125h-3.75Z" clip-rule="evenodd"/><path fill="#1B1B1B" fill-rule="evenodd" d="M3.175 2.125a.45.45 0 0 1 .45-.45h2.25a.45.45 0 1 1 0 .9h-2.25a.45.45 0 0 1-.45-.45ZM3.325 11.125a.3.3 0 0 1 .3-.3h2.25a.3.3 0 1 1 0 .6h-2.25a.3.3 0 0 1-.3-.3Z" clip-rule="evenodd"/></svg>