<svg xmlns="http://www.w3.org/2000/svg" width="15" height="14" fill="none"><path fill="#000" fill-rule="evenodd" d="M7.241 1.305a.439.439 0 0 0-.439-.44h-4.39a.439.439 0 0 0-.439.44v4.39c0 .242.197.439.44.439h4.39a.439.439 0 0 0 .438-.439v-4.39Zm-.878.439v3.512H2.851V1.744h3.512ZM11.266 5.11a1.683 1.683 0 1 1 0-3.366 1.683 1.683 0 0 1 0 3.366Zm0 .878a2.561 2.561 0 1 1 0-5.122 2.561 2.561 0 0 1 0 5.122ZM2.344 8.134c-.245 0-.444.187-.444.417v4.167c0 .23.199.416.444.416h11.111c.246 0 .445-.186.445-.416V8.55c0-.23-.2-.417-.444-.417H2.344Zm.445.834H13.01V12.3H2.789V8.968Z" clip-rule="evenodd"/></svg>