<svg xmlns="http://www.w3.org/2000/svg" width="16" height="16" fill="none" viewBox="0 0 16 16"><path fill="#1b1b1b" d="M13.98 12.667h-.525V8.139c0-2.424-1.483-4.488-3.563-5.288V1.96C9.892.877 9.042 0 7.995 0 6.95 0 6.103.88 6.103 1.96v.885C4.025 3.643 2.54 5.71 2.54 8.136v4.53h-.525a.526.526 0 0 0-.515.534c0 .293.232.533.515.533H5.45C5.64 15.013 6.708 16 8 16s2.36-.987 2.549-2.267h3.436c.283 0 .515-.24.515-.533a.53.53 0 0 0-.52-.533M7.132 1.96A.88.88 0 0 1 8 1.067c.476 0 .862.4.862.893v.608a5 5 0 0 0-.872-.08c-.294 0-.577.032-.858.077zM8 14.8c-.72 0-1.216-.376-1.39-1.067h2.812C9.249 14.424 8.72 14.8 8 14.8m-4.297-2.3V8.139C3.703 5.613 5.895 3.8 8 3.8s4.203 1.813 4.203 4.339V12.5z"/></svg>