<svg xmlns="http://www.w3.org/2000/svg" width="16" height="16" fill="none"><path fill="#1B1B1B" d="M12.465.983H3.523c-.841 0-1.52.68-1.52 1.535v10.964c0 .841.679 1.535 1.535 1.535h8.927c.841 0 1.535-.679 1.535-1.535V2.518A1.543 1.543 0 0 0 12.465.983Zm.458 12.485a.466.466 0 0 1-.472.472H3.523a.466.466 0 0 1-.472-.473V2.518c0-.266.206-.472.472-.472h8.928c.265 0 .472.206.472.472v10.95Z"/><path fill="#1B1B1B" d="M10.872 5.348H5.117a.529.529 0 0 0-.531.531c0 .296.236.532.53.532h5.756a.529.529 0 0 0 .531-.532.529.529 0 0 0-.531-.53ZM10.872 7.932H5.117a.529.529 0 0 0-.531.53c0 .296.236.532.53.532h5.756a.529.529 0 0 0 .531-.531.529.529 0 0 0-.531-.531ZM10.872 10.515H5.117a.53.53 0 0 0-.531.53c0 .296.236.532.53.532h5.756a.529.529 0 0 0 .531-.531.53.53 0 0 0-.531-.531Z"/></svg>