<svg xmlns="http://www.w3.org/2000/svg" width="16" height="16" fill="none"><path fill="#1B1B1B" d="M7.47 10.14a.842.842 0 0 1-.205-.724c.01-.053.025-.102.04-.15.02-.048.045-.096.07-.14.03-.042.06-.085.095-.122a.617.617 0 0 1 .245-.171.662.662 0 0 1 .57 0c.045.015.09.042.13.069.04.032.08.064.115.102.035.037.065.08.095.123.025.043.05.09.065.14a.777.777 0 0 1 .06.305c0 .208-.08.417-.22.567-.034.038-.075.07-.115.102-.04.027-.085.054-.13.075a1.1 1.1 0 0 1-.14.043.636.636 0 0 1-.29 0c-.05-.01-.095-.027-.14-.043a1.048 1.048 0 0 1-.13-.075 1.07 1.07 0 0 1-.115-.102Zm3.335 2.951a.77.77 0 0 0 .165.262c.035.038.075.07.115.103.04.026.085.053.13.075.045.015.09.032.14.042a.725.725 0 0 0 .675-.22.699.699 0 0 0 .16-.262.777.777 0 0 0 .045-.46.737.737 0 0 0-.045-.15.694.694 0 0 0-.16-.263.716.716 0 0 0-.675-.22.624.624 0 0 0-.14.049.617.617 0 0 0-.245.171 1.19 1.19 0 0 0-.095.123c-.025.043-.05.091-.07.14-.014.048-.03.096-.04.15a.777.777 0 0 0 0 .31c.01.054.025.102.04.15Zm-3.5 0c.02.048.045.097.07.14.03.042.06.085.095.123a.621.621 0 0 0 .245.171.624.624 0 0 0 .285.064.636.636 0 0 0 .284-.064.61.61 0 0 0 .131-.07c.04-.032.08-.064.115-.101a.699.699 0 0 0 .16-.262.777.777 0 0 0 .06-.305.843.843 0 0 0-.22-.569.607.607 0 0 0-.246-.171.663.663 0 0 0-.57 0 .617.617 0 0 0-.244.171.843.843 0 0 0-.165.873Zm3.5-3.214a.77.77 0 0 0 .165.263c.035.037.075.069.115.101.04.027.085.054.13.075.045.016.09.032.14.043a.636.636 0 0 0 .29 0c.05-.01.095-.027.14-.043a1.02 1.02 0 0 0 .13-.075c.04-.032.08-.064.115-.102a.699.699 0 0 0 .16-.263.777.777 0 0 0 .045-.46.737.737 0 0 0-.045-.15.697.697 0 0 0-.16-.262.716.716 0 0 0-1.06 0 .806.806 0 0 0-.165.262c-.014.048-.03.097-.04.15a.777.777 0 0 0 0 .31c.01.054.025.103.04.15Zm-6.305.498c.195 0 .39-.086.53-.236s.22-.353.22-.567a.843.843 0 0 0-.22-.568c-.28-.3-.78-.3-1.06 0a.843.843 0 0 0 0 1.135c.14.15.33.236.53.236ZM15 4.215v10.178c0 .886-.673 1.607-1.5 1.607h-11c-.827 0-1.5-.721-1.5-1.607V4.214c0-.886.673-1.607 1.5-1.607H4V1.536C4 1.24 4.224 1 4.5 1s.5.24.5.536v1.071h6V1.536c0-.296.224-.536.5-.536s.5.24.5.536v1.071h1.5c.827 0 1.5.721 1.5 1.607Zm-1 3.214H2v6.964c0 .295.224.536.5.536h11c.276 0 .5-.24.5-.536V7.429Zm0-3.215c0-.295-.224-.535-.5-.535H12V4.75c0 .296-.224.536-.5.536s-.5-.24-.5-.536V3.679H5V4.75c0 .296-.224.536-.5.536S4 5.046 4 4.75V3.679H2.5c-.276 0-.5.24-.5.535v2.143h12V4.214ZM4.5 13.59c.2 0 .39-.085.53-.235.14-.15.22-.354.22-.568a.833.833 0 0 0-.22-.568.737.737 0 0 0-1.06 0 .833.833 0 0 0-.22.568c0 .214.08.418.22.568.14.15.33.235.53.235Z"/></svg>