<svg xmlns="http://www.w3.org/2000/svg" width="16" height="16" fill="none"><path fill="#1B1B1B" d="M13.21 0H2.776c-.981 0-1.774.774-1.774 1.75v12.5c0 .96.793 1.75 1.791 1.75h10.419c.981 0 1.79-.774 1.79-1.75V1.75A1.78 1.78 0 0 0 13.212 0Zm.534 14.233a.538.538 0 0 1-.55.539H2.774a.538.538 0 0 1-.55-.539V1.75c0-.303.24-.539.55-.539h10.418c.31 0 .551.236.551.539v12.483Z"/><path fill="#1B1B1B" d="M11.351 4.976H7.544a.61.61 0 0 0-.62.606.61.61 0 0 0 .62.606h3.807a.61.61 0 0 0 .62-.606.61.61 0 0 0-.62-.606ZM4.88 4.976h-.345a.61.61 0 0 0-.62.606.61.61 0 0 0 .62.606h.345a.61.61 0 0 0 .62-.606.61.61 0 0 0-.62-.606ZM5 7.945l-.501-.017a.61.61 0 0 0-.62.606.61.61 0 0 0 .62.606L5 9.157a.61.61 0 0 0 .62-.606.61.61 0 0 0-.62-.606ZM5 10.867l-.501-.017a.61.61 0 0 0-.62.606.61.61 0 0 0 .62.605l.501.017a.61.61 0 0 0 .62-.605.61.61 0 0 0-.62-.606ZM11.351 7.922H7.453a.61.61 0 0 0-.62.605.61.61 0 0 0 .62.606h3.898a.61.61 0 0 0 .62-.606.61.61 0 0 0-.62-.605ZM11.351 10.867H7.453a.61.61 0 0 0-.62.606.61.61 0 0 0 .62.605h3.898a.61.61 0 0 0 .62-.605.61.61 0 0 0-.62-.606Z"/></svg>