<svg xmlns="http://www.w3.org/2000/svg" width="16" height="16" fill="none"><path fill="#1B1B1B" d="M8 1C4.14 1 1 4.14 1 8s3.14 7 7 7 7-3.14 7-7-3.14-7-7-7ZM4.32 12.633A4.473 4.473 0 0 1 8 10.693c1.48 0 2.85.737 3.68 1.94a5.891 5.891 0 0 1-7.36 0Zm1.347-5.35A2.336 2.336 0 0 1 8 4.948a2.336 2.336 0 0 1 2.333 2.333A2.336 2.336 0 0 1 8 9.615a2.336 2.336 0 0 1-2.333-2.333Zm6.792 4.603a5.55 5.55 0 0 0-2.43-1.879 3.398 3.398 0 0 0 1.381-2.725c0-1.88-1.53-3.41-3.41-3.41-1.88 0-3.41 1.53-3.41 3.41 0 1.118.548 2.103 1.382 2.725a5.56 5.56 0 0 0-2.43 1.88A5.893 5.893 0 0 1 2.077 8 5.93 5.93 0 0 1 8 2.077 5.93 5.93 0 0 1 13.923 8a5.891 5.891 0 0 1-1.464 3.886Z"/></svg>