<svg xmlns="http://www.w3.org/2000/svg" width="16" height="16" fill="none"><path fill="#1B1B1B" d="M7.47 10.14a.843.843 0 0 1-.205-.724c.01-.054.025-.102.04-.15.02-.048.045-.097.07-.14.03-.042.06-.085.095-.123a.616.616 0 0 1 .245-.171.662.662 0 0 1 .57 0c.045.016.09.043.13.07.04.032.08.064.115.101a.697.697 0 0 1 .16.262.777.777 0 0 1 .06.305c0 .21-.08.42-.22.57-.034.037-.075.069-.115.1-.04.028-.085.054-.13.076a1.1 1.1 0 0 1-.14.043.636.636 0 0 1-.29 0 1.08 1.08 0 0 1-.14-.043 1.048 1.048 0 0 1-.13-.075 1.07 1.07 0 0 1-.115-.102Zm3.335 2.951a.767.767 0 0 0 .28.364c.04.027.085.054.13.075.045.016.09.032.14.043a.725.725 0 0 0 .675-.22.696.696 0 0 0 .16-.263.778.778 0 0 0 .045-.46.74.74 0 0 0-.045-.15.696.696 0 0 0-.16-.262.716.716 0 0 0-.675-.22.624.624 0 0 0-.14.048.617.617 0 0 0-.245.172 1.19 1.19 0 0 0-.095.123c-.025.043-.05.091-.07.14-.014.047-.03.096-.04.15a.777.777 0 0 0 0 .31c.01.054.025.102.04.15Zm-3.5 0c.02.048.045.096.07.14.03.042.06.085.095.123a.617.617 0 0 0 .245.171.624.624 0 0 0 .285.064.636.636 0 0 0 .284-.064.607.607 0 0 0 .131-.07c.04-.032.08-.064.115-.101a.696.696 0 0 0 .16-.263.778.778 0 0 0 .06-.305.843.843 0 0 0-.22-.568c-.034-.038-.075-.07-.115-.102a.607.607 0 0 0-.13-.07.663.663 0 0 0-.57 0 .617.617 0 0 0-.13.07c-.04.032-.08.064-.115.102a.843.843 0 0 0-.205.723c.01.053.025.102.04.15Zm3.5-3.214a.77.77 0 0 0 .165.263c.035.037.075.069.115.101.04.027.085.053.13.075.045.016.09.032.14.043a.636.636 0 0 0 .29 0c.05-.01.095-.027.14-.043.045-.022.09-.048.13-.075.04-.032.08-.064.115-.102a.699.699 0 0 0 .16-.263.777.777 0 0 0 .045-.46.737.737 0 0 0-.045-.15.697.697 0 0 0-.16-.263.716.716 0 0 0-.675-.22c-.05.012-.095.028-.14.044-.045.021-.09.048-.13.075-.04.032-.08.064-.115.101a.806.806 0 0 0-.165.263c-.014.048-.03.096-.04.15a.777.777 0 0 0 0 .31c.01.054.025.102.04.15Zm-6.305.498c.195 0 .39-.086.53-.236s.22-.353.22-.568a.843.843 0 0 0-.22-.568c-.28-.3-.78-.3-1.06 0a.843.843 0 0 0 0 1.136c.14.15.33.236.53.236ZM15 4.215v10.178c0 .886-.673 1.607-1.5 1.607h-11c-.827 0-1.5-.721-1.5-1.607V4.214c0-.886.673-1.607 1.5-1.607h11c.827 0 1.5.721 1.5 1.607Zm-1 3.213H2v6.965c0 .295.224.535.5.535h11c.276 0 .5-.24.5-.535V7.428Zm0-3.214c0-.295-.224-.536-.5-.536H12V4.75c0 .296-.224.536-.5.536s-.5-.24-.5-.536V3.678H6V4.75c0 .296-.224.536-.5.536S5 5.046 5 4.75V3.678H2.5c-.276 0-.5.24-.5.536v2.143h12V4.214ZM4.5 13.59c.2 0 .39-.086.53-.236s.22-.353.22-.567a.833.833 0 0 0-.22-.568.737.737 0 0 0-1.06 0 .833.833 0 0 0-.22.568c0 .214.08.417.22.567.14.15.33.236.53.236Z"/><path stroke="#1B1B1B" d="M5.5 4V2c0-.333-.2-1-1-1s-1 .667-1 1v1.5M11.5 4V2c0-.333-.2-1-1-1s-1 .667-1 1v1.5"/></svg>