<svg xmlns="http://www.w3.org/2000/svg" width="18" height="18" fill="none"><path fill="#1B1B1B" stroke="#1B1B1B" d="M1 3a2 2 0 0 1 2-2h12a2 2 0 0 1 2 2v12a2 2 0 0 1-2 2H3a2 2 0 0 1-2-2V3Z"/><path fill="#fff" d="M13.514 13.342a.49.49 0 0 1-.146-.35c.004-2.378-.911-4.585-2.577-6.216-1.666-1.63-3.893-2.497-6.27-2.44a.485.485 0 0 1-.5-.491.522.522 0 0 1 .506-.515c2.644-.062 5.122.903 6.977 2.718 1.854 1.814 2.873 4.27 2.869 6.916a.52.52 0 0 1-.504.516.484.484 0 0 1-.355-.138Zm-2.327.207a.52.52 0 0 0 .504-.515c.007-1.927-.735-3.717-2.09-5.041-1.353-1.325-3.16-2.029-5.085-1.98a.52.52 0 0 0-.504.516.485.485 0 0 0 .5.49A5.983 5.983 0 0 1 8.89 8.72a5.983 5.983 0 0 1 1.797 4.338.485.485 0 0 0 .5.49Zm-2.684.069a.52.52 0 0 0 .506-.513A4.341 4.341 0 0 0 7.7 9.936a4.343 4.343 0 0 0-3.196-1.24.522.522 0 0 0-.502.517c0 .28.226.496.502.488a3.372 3.372 0 0 1 2.482.964 3.37 3.37 0 0 1 1.018 2.46.486.486 0 0 0 .5.493Z"/></svg>