<svg xmlns="http://www.w3.org/2000/svg" width="16" height="11" fill="none"><path fill="#000" fill-rule="evenodd" d="M7.43 2.208c-1.228.09-2.46.475-3.69 1.16L2.118 1.808a.588.588 0 0 0-.808 0 .535.535 0 0 0 0 .777l1.447 1.391C1.887 4.573 1.02 5.32.153 6.22a.534.534 0 0 0 0 .748C2.763 9.674 5.39 10.999 8 11c2.61.001 5.238-1.32 7.848-4.034l.004-.004.057-.072.047-.085.029-.086.014-.095-.002-.089-.02-.094-.032-.084-.043-.071-.054-.066c-.866-.9-1.734-1.648-2.604-2.244l1.446-1.39a.535.535 0 0 0 0-.777.588.588 0 0 0-.808 0l-1.62 1.557C11.033 2.68 9.8 2.298 8.572 2.207V.549A.561.561 0 0 0 8.001 0a.561.561 0 0 0-.572.55v1.658Zm.683 1.078a.629.629 0 0 1-.224 0c-2.182.038-4.348 1.159-6.529 3.307C3.578 8.778 5.781 9.9 8 9.901c2.22.001 4.424-1.119 6.642-3.308-2.18-2.152-4.348-3.271-6.53-3.307ZM8 3.846c-1.578 0-2.858 1.23-2.858 2.747 0 1.516 1.28 2.747 2.858 2.747 1.577 0 2.857-1.23 2.857-2.747 0-1.516-1.28-2.747-2.857-2.747Zm0 1.099c.946 0 1.714.738 1.714 1.648 0 .91-.768 1.648-1.714 1.648-.947 0-1.715-.738-1.715-1.648 0-.91.768-1.648 1.715-1.648Z" clip-rule="evenodd"/></svg>