<svg xmlns="http://www.w3.org/2000/svg" width="24" height="24" fill="none"><path fill="#000" d="M21.75 5.96a8.015 8.015 0 0 1-2.302.619 3.987 3.987 0 0 0 1.758-2.203 7.89 7.89 0 0 1-2.536.965 3.986 3.986 0 0 0-2.92-1.263 3.996 3.996 0 0 0-3.996 3.999c0 .309.037.618.098.916a11.358 11.358 0 0 1-8.24-4.184 3.968 3.968 0 0 0-.544 2.018c0 1.388.705 2.611 1.781 3.33a4.03 4.03 0 0 1-1.807-.508v.05a3.997 3.997 0 0 0 3.204 3.923c-.344.09-.697.135-1.052.136a5.31 5.31 0 0 1-.755-.061 4.004 4.004 0 0 0 3.736 2.773 8.01 8.01 0 0 1-4.962 1.708c-.335 0-.644-.012-.965-.05a11.317 11.317 0 0 0 6.138 1.794c7.35 0 11.372-6.09 11.372-11.374 0-.174 0-.347-.012-.52A8.607 8.607 0 0 0 21.75 5.96Z"/></svg>