<svg xmlns="http://www.w3.org/2000/svg" width="16" height="16" fill="none"><path fill="#1B1B1B" d="M10.944 1c-.44 0-.88.165-1.213.498L1.737 9.497A2.515 2.515 0 0 0 1 11.275v2.148C1 14.286 1.714 15 2.577 15h2.148c.667 0 1.307-.265 1.778-.737l7.999-7.994a1.724 1.724 0 0 0 0-2.424l-2.347-2.347A1.708 1.708 0 0 0 10.943 1Zm.002 1.16c.14 0 .278.055.387.165l2.342 2.341a.54.54 0 0 1 0 .775l-1.15 1.15L9.41 3.474l1.15-1.15a.545.545 0 0 1 .387-.163ZM8.582 4.302 11.7 7.418 5.68 13.436a1.353 1.353 0 0 1-.956.395H2.577a.4.4 0 0 1-.41-.409v-2.148c0-.358.143-.703.396-.956l6.02-6.017Z"/></svg>