<svg xmlns="http://www.w3.org/2000/svg" width="24" height="24" fill="none"><path fill="#000" d="M16.102 2.01c-.042-.047-1.573.019-2.906 1.465C11.864 4.92 12.07 6.577 12.1 6.62c.03.042 1.9.109 3.093-1.573 1.194-1.68.953-2.988.91-3.037Zm4.143 14.666c-.06-.12-2.906-1.542-2.641-4.277.265-2.737 2.093-3.487 2.122-3.568.029-.081-.746-.987-1.567-1.446a4.615 4.615 0 0 0-1.954-.543c-.135-.003-.604-.118-1.568.145-.635.174-2.066.737-2.46.76-.395.022-1.57-.653-2.833-.832-.81-.156-1.667.164-2.28.41-.613.245-1.778.942-2.593 2.796-.815 1.853-.389 4.788-.084 5.7.305.911.782 2.405 1.592 3.495.72 1.23 1.675 2.084 2.073 2.374.4.29 1.524.482 2.304.084.628-.385 1.76-.607 2.208-.59.446.016 1.326.192 2.227.673.714.247 1.389.144 2.065-.13.676-.277 1.655-1.325 2.798-3.448.433-.988.63-1.522.59-1.603Z"/><path fill="#000" d="M16.102 2.01c-.042-.047-1.573.019-2.906 1.465C11.864 4.92 12.07 6.577 12.1 6.62c.03.042 1.9.109 3.093-1.573 1.194-1.68.953-2.988.91-3.037Zm4.143 14.666c-.06-.12-2.906-1.542-2.641-4.277.265-2.737 2.093-3.487 2.122-3.568.029-.081-.746-.987-1.567-1.446a4.615 4.615 0 0 0-1.954-.543c-.135-.003-.604-.118-1.568.145-.635.174-2.066.737-2.46.76-.395.022-1.57-.653-2.833-.832-.81-.156-1.667.164-2.28.41-.613.245-1.778.942-2.593 2.796-.815 1.853-.389 4.788-.084 5.7.305.911.782 2.405 1.592 3.495.72 1.23 1.675 2.084 2.073 2.374.4.29 1.524.482 2.304.084.628-.385 1.76-.607 2.208-.59.446.016 1.326.192 2.227.673.714.247 1.389.144 2.065-.13.676-.277 1.655-1.325 2.798-3.448.433-.988.63-1.522.59-1.603Z"/></svg>