<svg xmlns="http://www.w3.org/2000/svg" width="16" height="16" fill="none"><path fill="#1B1B1B" d="M6.739 1c.99 0 1.94.394 2.64 1.094l5.071 5.072a1.9 1.9 0 0 1 0 2.673L9.84 14.45a1.895 1.895 0 0 1-2.67 0L2.094 9.375C1.394 8.674 1 7.725 1 6.734V3.43A2.438 2.438 0 0 1 3.429 1h3.31Zm0 1.167h-3.31c-.704 0-1.262.557-1.262 1.26v3.307c0 .681.272 1.336.753 1.817l5.072 5.072a.713.713 0 0 0 1.021 0l4.611-4.611a.713.713 0 0 0 0-1.02L8.552 2.918a2.562 2.562 0 0 0-1.812-.753h-.001Z"/><path fill="#1B1B1B" d="M6.489 3.872c.717.717.717 1.9 0 2.618-.717.717-1.9.717-2.618 0a1.861 1.861 0 0 1 0-2.618 1.861 1.861 0 0 1 2.618 0Zm-.827.827a.672.672 0 0 0-.964 0 .672.672 0 0 0 0 .964.672.672 0 0 0 .964 0 .672.672 0 0 0 0-.964Z"/></svg>