<svg xmlns="http://www.w3.org/2000/svg" width="14" height="14" fill="none"><path fill="#000" fill-rule="evenodd" d="M7 13A6 6 0 1 0 7 1a6 6 0 0 0 0 12Zm0 1A7 7 0 1 0 7 0a7 7 0 0 0 0 14Z" clip-rule="evenodd"/><path fill="#000" fill-rule="evenodd" d="M4.164 4.13a.5.5 0 0 1 .706.034l5 5.5a.5.5 0 1 1-.74.672l-5-5.5a.5.5 0 0 1 .034-.706Z" clip-rule="evenodd"/><path fill="#000" fill-rule="evenodd" d="M9.836 4.13a.5.5 0 0 0-.706.034l-5 5.5a.5.5 0 1 0 .74.672l5-5.5a.5.5 0 0 0-.034-.706Z" clip-rule="evenodd"/></svg>