<svg xmlns="http://www.w3.org/2000/svg" width="16" height="16" fill="none"><path fill="#1B1B1B" d="M3.381 15h9.659a1.216 1.216 0 0 0 .898-.395 1.233 1.233 0 0 0 .322-.931l-.69-9.032a1.24 1.24 0 0 0-.39-.807 1.225 1.225 0 0 0-.83-.33H4.07a1.225 1.225 0 0 0-.83.33 1.24 1.24 0 0 0-.39.807l-.69 9.032a1.24 1.24 0 0 0 .322.931 1.224 1.224 0 0 0 .898.395Zm.286-10.295a.412.412 0 0 1 .407-.379h8.28a.407.407 0 0 1 .409.38l.69 9.03a.413.413 0 0 1-.244.409.407.407 0 0 1-.164.034H3.38a.406.406 0 0 1-.386-.275.413.413 0 0 1-.022-.167l.694-9.032Z"/><path fill="#1B1B1B" d="M8.04 1c.54 0 1.059.217 1.44.602.383.385.598.906.599 1.45v.822a.412.412 0 0 1-.408.41.407.407 0 0 1-.408-.41v-.821c0-.327-.129-.64-.358-.871a1.22 1.22 0 0 0-1.73 0c-.23.23-.36.544-.36.87v.822a.412.412 0 0 1-.407.41.407.407 0 0 1-.408-.41v-.821c0-.545.216-1.066.598-1.451S7.498 1 8.04 1Z"/></svg>