<svg xmlns="http://www.w3.org/2000/svg" width="16" height="16" fill="none"><path fill="#1B1B1B" d="M7.524 4.333a.417.417 0 0 0 0 .834h2.708a.417.417 0 0 0 0-.834H7.524ZM7.107 7.678c0-.23.187-.416.417-.416h2.708a.417.417 0 0 1 0 .833H7.524a.417.417 0 0 1-.417-.417ZM7.524 10.167a.417.417 0 1 0 0 .833h2.708a.417.417 0 1 0 0-.833H7.524Z"/><path fill="#1B1B1B" d="M3 2.667C3 1.747 3.746 1 4.667 1h6.666C12.253 1 13 1.746 13 2.667v10c0 .92-.746 1.666-1.667 1.666H4.667c-.92 0-1.667-.746-1.667-1.666v-10Zm8.333-.834H4.667a.833.833 0 0 0-.834.834v10c0 .46.373.833.834.833h6.666c.46 0 .834-.373.834-.833v-10a.833.833 0 0 0-.834-.834Z"/><path fill="#1B1B1B" d="M5.5 4.333a.417.417 0 0 0 0 .834h.292a.417.417 0 0 0 0-.834H5.5ZM5.5 7.262a.417.417 0 1 0 0 .833h.292a.417.417 0 0 0 0-.833H5.5ZM5.5 10.167a.417.417 0 1 0 0 .833h.292a.417.417 0 1 0 0-.833H5.5Z"/></svg>