<svg xmlns="http://www.w3.org/2000/svg" width="16" height="16" fill="none"><path fill="#1B1B1B" fill-rule="evenodd" d="M2.642 6.408c0-.339.165-.656.442-.85l4.321-3.025c.357-.25.833-.25 1.19 0l4.32 3.025c.278.194.443.511.443.85v6.913c0 .573-.464 1.037-1.037 1.037H3.679a1.037 1.037 0 0 1-1.037-1.037V6.408ZM8 3.383 3.679 6.408v6.913h8.642V6.408L8 3.383Z" clip-rule="evenodd"/><path fill="#1B1B1B" fill-rule="evenodd" d="M10.765 14.358h-5.53v-3.917h1.037v2.88h3.456v-2.88h1.037v3.917Zm-1.037-3.917S9.728 9 8 9s-1.728 1.44-1.728 1.44c-1.038 0-1.038 0-1.038-.002v-.023a1.617 1.617 0 0 1 .008-.126 2.602 2.602 0 0 1 .357-1.103c.41-.683 1.185-1.224 2.4-1.224 1.216 0 1.993.54 2.403 1.224a2.601 2.601 0 0 1 .363 1.23v.023H9.728ZM7.693 2.1a.519.519 0 0 1 .614 0l6.481 4.753a.519.519 0 0 1-.613.837L8 3.162 1.825 7.69a.519.519 0 1 1-.613-.837L7.693 2.1Z" clip-rule="evenodd"/></svg>