<svg xmlns="http://www.w3.org/2000/svg" width="16" height="16" fill="none"><path fill="#000" fill-rule="evenodd" d="M1.884 5.18a.5.5 0 0 0-.704-.064l.704.063Zm0 0 .005.006.022.025a8.287 8.287 0 0 0 .464.478c.327.31.803.717 1.398 1.104C4.76 7.434 6.045 8 7.5 8c1.241 0 2.333-.411 3.253-.935.668-.38 1.264-.855 1.696-1.24a11.508 11.508 0 0 0 .672-.651l.007-.008.002-.002a.5.5 0 0 1 .74.672L13.5 5.5l.37.336-.001.002-.003.003-.011.012-.041.043c-.035.037-.085.09-.15.155a12.526 12.526 0 0 1-1.8 1.5l1.948 1.559a.5.5 0 0 1-.624.78l-2.24-1.792c-.839.44-1.828.799-2.948.883V11.5a.5.5 0 1 1-1 0V8.981c-1.319-.099-2.478-.576-3.403-1.12l-1.72 1.968a.5.5 0 1 1-.753-.658l1.63-1.866A10.935 10.935 0 0 1 1.27 5.993a6.076 6.076 0 0 1-.141-.158l-.009-.01-.003-.003V5.82L1.5 5.5l-.383.32a.5.5 0 0 1 .063-.704" clip-rule="evenodd"/></svg>