<svg xmlns="http://www.w3.org/2000/svg" width="16" height="16" fill="none"><path fill="#1B1B1B" d="M11.534 7h3.932a.25.25 0 0 1 .192.41l-1.966 2.36a.25.25 0 0 1-.384 0l-1.966-2.36a.25.25 0 0 1 .192-.41Zm-11 2h3.932a.25.25 0 0 0 .192-.41L2.692 6.23a.25.25 0 0 0-.384 0L.342 8.59A.25.25 0 0 0 .534 9Z"/><path fill="#1B1B1B" fill-rule="evenodd" d="M8 3c-1.552 0-2.94.707-3.857 1.818a.5.5 0 1 1-.771-.636A6.002 6.002 0 0 1 13.917 7H12.9A5.002 5.002 0 0 0 8 3ZM3.1 9a5.002 5.002 0 0 0 8.757 2.182.502.502 0 0 1 .84.075.499.499 0 0 1-.069.561A6.002 6.002 0 0 1 2.083 9H3.1Z" clip-rule="evenodd"/></svg>