<svg xmlns="http://www.w3.org/2000/svg" width="16" height="16" fill="none"><g clip-path="url(#a)"><path fill="#1B1B1B" d="M2.552 4.405a.555.555 0 0 0-.772.058L.306 6.126c-.472.537-.436 1.34.08 1.804l8.593 7.622c.52.456 1.323.396 1.8-.136l1.475-1.663a.555.555 0 0 0-.034-.773c-.371-.328-.397-.905-.057-1.287.339-.383.915-.426 1.285-.098a.555.555 0 0 0 .772-.058l1.474-1.662c.471-.538.436-1.342-.08-1.804L7.021.448c-.52-.456-1.323-.395-1.8.137L3.746 2.247c-.2.23-.184.574.034.773.37.329.396.905.057 1.288-.339.382-.915.426-1.285.097Zm2.32-1.804L6.026 1.3a.188.188 0 0 1 .127-.063.177.177 0 0 1 .13.044l5.506 4.883-.614.692a.547.547 0 0 0 .034.773.547.547 0 0 0 .771-.058l.615-.693 2.282 2.025c.075.066.08.181.012.258l-1.155 1.302c-.802-.371-1.768-.159-2.371.521s-.699 1.665-.235 2.416l-1.154 1.302a.182.182 0 0 1-.258.02l-2.282-2.025.614-.692a.547.547 0 0 0-.034-.773.547.547 0 0 0-.772.058l-.614.692-5.505-4.883a.177.177 0 0 1-.06-.125.189.189 0 0 1 .048-.133l1.155-1.302c.802.372 1.768.16 2.37-.52.604-.681.7-1.665.236-2.417Zm3.845 7.025L9.7 8.518a.547.547 0 0 1 .772-.059.547.547 0 0 1 .034.773l-.984 1.109a.547.547 0 0 1-.771.058.548.548 0 0 1-.034-.773Z"/></g><defs><clipPath id="a"><path fill="#fff" d="M0 0h16v16H0z"/></clipPath></defs></svg>