<svg xmlns="http://www.w3.org/2000/svg" width="394" height="241" fill="none"><path fill="#EBEBEB" d="M72.162 79.218H14.288v107.634h57.874V79.218Z"/><path fill="#DBDBDB" d="M74.961 76.247H11.483v2.971H74.96v-2.97Z"/><path fill="#EBEBEB" d="M94.923 76.247H74.961v2.971h19.962v-2.97Z"/><path fill="#DBDBDB" d="M91.769 79.218H72.162v107.634h19.607V79.218Z"/><path fill="#C7C7C7" d="M65.93 116.319H20.514V90.616H65.93v25.703Zm-45.268-.148h45.12V90.764h-45.12v25.407Z"/><path fill="#C7C7C7" d="M45.725 98.121h-8.841v5.084h8.841v-5.084Z"/><path fill="#C7C7C7" d="M48.412 102.891h-8.96v-4.462h8.984l-.024 4.462Zm-8.836-.148h8.688V98.6h-8.688v4.143ZM65.93 148.531H20.514v-25.673H65.93v25.673Zm-45.268-.147h45.12v-25.378h-45.12v25.378Z"/><path fill="#C7C7C7" d="M45.725 130.363h-8.841v5.084h8.841v-5.084Z"/><path fill="#C7C7C7" d="M48.412 135.139h-8.96v-4.468h8.984l-.024 4.468Zm-8.836-.148h8.688v-4.172h-8.688v4.172ZM65.93 180.774H20.514v-25.673H65.93v25.673Zm-45.268-.148h45.12v-25.377h-45.12v25.377Z"/><path fill="#C7C7C7" d="M45.725 162.605h-8.841v5.084h8.841v-5.084Z"/><path fill="#C7C7C7" d="M48.412 167.381h-8.96v-4.462h8.984l-.024 4.462Zm-8.836-.165h8.688v-4.143h-8.688v4.143Z"/><path fill="#EBEBEB" d="M367.787 110.584h-57.874v76.268h57.874v-76.268Z"/><path fill="#DBDBDB" d="M370.586 107.613h-63.478v2.971h63.478v-2.971Z"/><path fill="#EBEBEB" d="M390.548 107.613h-19.962v2.971h19.962v-2.971Z"/><path fill="#DBDBDB" d="M387.394 110.584h-19.607v76.268h19.607v-76.268Z"/><path fill="#A6A6A6" d="M361.484 122.06h-45.268v25.519h45.268V122.06Z"/><path fill="#C7C7C7" d="M357.075 115.526h-34.461v24.981h34.461v-24.981ZM334.787 112.934h-12.173v2.592h12.877l-.704-2.592Z"/><path fill="#A6A6A6" d="M356.98 140.501h-34.455l-2.658-22.903h34.456l2.657 22.903ZM331.763 115.225h-12.174l.279 2.373h12.872l-.977-2.373Z"/><path fill="#EBEBEB" d="M339.676 122.06h-45.269v25.519h45.269V122.06Z"/><path fill="#C7C7C7" d="M339.747 147.685h-45.411v-25.703h45.411v25.703Zm-45.263-.148h45.115V122.13h-45.115v25.407Z"/><path fill="#C7C7C7" d="M319.548 129.487h-8.842v5.084h8.842v-5.084Z"/><path fill="#C7C7C7" d="M322.229 134.263h-8.984v-4.468h8.984v4.468Zm-8.836-.148h8.688v-4.184h-8.688v4.184Z"/><path fill="#DBDBDB" d="M361.484 125.883h-21.696v21.696h21.696v-21.696Z"/><path fill="#C7C7C7" d="M361.555 179.898h-45.416v-25.673h45.416v25.673Zm-45.268-.148h45.114v-25.377h-45.114v25.377Z"/><path fill="#C7C7C7" d="M341.35 161.729h-8.841v5.084h8.841v-5.084Z"/><path fill="#C7C7C7" d="M344.037 166.505h-8.984v-4.468h8.984v4.468Zm-8.836-.148h8.688v-4.172h-8.688v4.172Z"/><path fill="#263238" d="m8.104 186.852 48.233-.142 48.227-.054 96.454-.1 96.455.1 48.227.054 48.233.142L345.7 187l-48.227.047-96.455.1-96.454-.1-48.227-.053-48.233-.142Z"/><path fill="#EBEBEB" d="M201.018 240.5c93.722 0 169.698-8.325 169.698-18.595 0-10.269-75.976-18.594-169.698-18.594-93.721 0-169.697 8.325-169.697 18.594 0 10.27 75.976 18.595 169.697 18.595ZM186.69 51.485h-68.449v87.874h68.449V51.485Z"/><path fill="#DBDBDB" d="m186.691 139.358-34.172.119-34.278.065h-.189v-.19l-.101-87.873v-.26h.29l68.45.07h.224v.22l-.1 43.972-.124 43.877Zm0 0-.148-43.996-.071-43.877.219.225-68.45.065.29-.29-.107 87.873-.183-.189 34.177.071 34.273.118Z"/><path fill="#C7C7C7" d="m125.727 70.27 26.739-.072 26.738.071-26.738.065-26.739-.065ZM125.727 72.447l26.739-.065 26.738.065-26.738.071-26.739-.071ZM125.727 74.632l26.739-.072 26.738.072-26.738.065-26.739-.065ZM125.727 76.81l26.739-.066 26.738.065-26.738.065-26.739-.065ZM125.727 78.993l26.739-.071 26.738.07-26.738.066-26.739-.065ZM125.727 81.17l26.739-.064 26.738.065-26.738.065-26.739-.065ZM125.727 83.348l26.739-.065 26.738.065-26.738.071-26.739-.07ZM125.727 85.533l26.739-.065 26.738.065-26.738.065-26.739-.065ZM125.727 87.71l26.739-.064 26.738.065-26.738.07-26.739-.07ZM125.727 89.894l26.739-.07 26.738.07-26.738.065-26.739-.065ZM125.727 92.072l26.739-.065 26.738.065-26.738.071-26.739-.071ZM125.727 94.256l26.739-.071 26.738.07-26.738.066-26.739-.065ZM125.727 96.433l26.739-.065 26.738.065-26.738.071-26.739-.07ZM125.727 98.618l26.739-.071 26.738.07-26.738.066-26.739-.065ZM125.727 100.796l26.739-.066 26.738.066-26.738.071-26.739-.071Z"/><path fill="#FF4235" d="M135.439 94.185h-4.054v9.149h4.054v-9.15ZM142.961 89.303h-4.054v14.032h4.054V89.303ZM150.483 83.84h-4.054v19.5h4.054v-19.5ZM158.005 81.496h-4.054v21.844h4.054V81.496ZM165.527 77.313h-4.054v26.028h4.054V77.313ZM173.049 73.175h-4.054v30.159h4.054v-30.16Z"/><path fill="#C7C7C7" d="m127.177 68.736.107 8.653.071 8.646c.053 5.77.065 11.535.077 17.305l-.255-.255h13.02l13.02.03 13.02.083 13.02.148-13.02.148-13.02.083h-26.288v-.249c0-5.768.023-11.536.071-17.305l.077-8.646.1-8.64ZM135.439 105.169h-4.054v.367h4.054v-.367ZM142.961 105.169h-4.054v.367h4.054v-.367ZM150.483 105.169h-4.054v.367h4.054v-.367ZM158.005 105.169h-4.054v.367h4.054v-.367ZM165.527 105.169h-4.054v.367h4.054v-.367ZM173.049 105.169h-4.054v.367h4.054v-.367Z"/><path fill="#263238" d="M131.841 95.339c1.98-.03 3.956-.178 5.918-.444a59.063 59.063 0 0 0 5.853-1.065 50.643 50.643 0 0 0 11.138-3.924 39.719 39.719 0 0 0 9.736-6.628l.55-.498.521-.526 1.029-1.06c.64-.751 1.326-1.467 1.906-2.266a40.263 40.263 0 0 0 3.326-4.918h.03a35.585 35.585 0 0 1-11.665 13.393 39.476 39.476 0 0 1-5.161 3.03 50.373 50.373 0 0 1-23.152 4.906h-.029Z"/><path fill="#263238" d="m172.954 76.845-.562.142-.692-2.77-2.711.894-.177-.55 3.302-1.084.84 3.368Z"/><path fill="#DBDBDB" d="M124.585 119.195h55.761v-2.255h-55.761v2.255ZM124.585 124.895h31.396v-2.255h-31.396v2.255ZM136.765 63.452h31.396v-2.255h-31.396v2.255Z"/><path fill="#FF4235" d="M173.753 160.782 106.7 174.559 89.017 88.485 138.8 78.26l20.636 12.854 14.316 69.669Z"/><path fill="#fff" d="M173.753 160.782 106.7 174.559 89.017 88.485 138.8 78.26l20.636 12.854 14.316 69.669Z" opacity=".8"/><path fill="#FF4235" d="m138.801 78.259 20.636 12.854-17.269 3.545-3.367-16.4Z"/><path fill="#DBDBDB" d="m98.977 103.792 37.281-7.66-.454-2.208-37.28 7.66.453 2.208ZM100.12 109.369l37.281-7.659-.453-2.209-37.282 7.66.454 2.208ZM101.275 114.945l37.281-7.66-.453-2.209-37.282 7.66.454 2.209ZM102.421 120.525l54.62-11.222-.454-2.209-54.62 11.222.454 2.209ZM103.674 125.809l54.646-11.152-.451-2.21-54.646 11.153.451 2.209ZM104.713 131.679l54.62-11.222-.453-2.209-54.621 11.222.454 2.209ZM105.864 137.26l54.62-11.222-.454-2.209-54.62 11.222.454 2.209ZM107.007 142.837l54.62-11.222-.454-2.208-54.62 11.221.454 2.209ZM108.151 148.42l54.621-11.222-.454-2.208-54.62 11.221.453 2.209ZM109.295 153.997l54.62-11.222-.454-2.208-54.62 11.222.454 2.208ZM110.45 159.572l54.62-11.221-.454-2.209-54.62 11.222.454 2.208ZM111.594 165.155l54.621-11.221-.454-2.209-54.62 11.222.453 2.208Z"/><path fill="#EBEBEB" d="m311.244 98.221-75.107 5.469c-8.552-32.515.592-65.03-6.054-97.544L305.178.678c8.558 32.514-.591 65.029 6.066 97.543Z"/><path fill="#DBDBDB" d="m311.245 98.221-75.061 5.67h-.177a1.717 1.717 0 0 1-.048-.184c-8.599-32.508.527-65.023-6.166-97.537 0-.095-.042-.196-.065-.29h.295L305.131.5h.207c.016.07.036.14.059.207 8.481 32.473-.757 64.994 5.848 97.514Zm0 0c-6.747-32.509 2.367-65.017-6.262-97.526l.261.19-75.102 5.557.231-.32c6.634 32.55-2.569 65.035 5.918 97.556l-.231-.172 75.185-5.285Z"/><path fill="#DBDBDB" d="m239.149 20.077 42.167-3.036c.095.832.178 1.667.249 2.503l-42.22 3.042c-.059-.84-.125-1.674-.196-2.509ZM239.57 26.404l42.297-3.042c.051.833.098 1.667.142 2.504l-42.339 3.042c-.029-.835-.065-1.67-.1-2.504ZM239.765 32.725l42.398-3.042c0 .834.041 1.669.059 2.503l-42.433 3.054c0-.846-.012-1.681-.024-2.515ZM239.788 39.045l62.218-4.45v2.503l-62.253 4.45c.024-.834.035-1.668.035-2.503ZM239.706 45.365 302 40.915l-.035 2.503-62.313 4.457.054-2.51ZM239.558 51.693l62.33-4.457c0 .835-.036 1.67-.059 2.504l-62.342 4.438c.029-.816.053-1.65.071-2.485ZM239.41 58.013l62.324-4.427c0 .834-.035 1.675-.059 2.51l-62.313 4.45c.018-.864.03-1.699.048-2.533ZM239.315 64.333l62.312-4.45c0 .834-.029 1.669-.041 2.503l-62.259 4.45a57.945 57.945 0 0 1-.012-2.503ZM239.321 70.655l62.2-4.45v2.502l-62.141 4.457c-.036-.835-.047-1.67-.059-2.51ZM239.487 76.98l62.087-4.456c0 .835.036 1.67.065 2.51l-62.028 4.45c-.047-.832-.089-1.667-.124-2.503ZM239.871 83.301l61.928-4.456c.042.84.095 1.675.148 2.509l-61.869 4.45c-.071-.852-.142-1.668-.207-2.503ZM240.522 89.622l61.733-4.45c.077.834.16 1.669.254 2.503l-61.644 4.457c-.124-.835-.236-1.675-.343-2.51Z"/><path fill="#FF4235" d="M300.562 133.026a23150.062 23150.062 0 0 1-76.812-13.157c3.309-32.13 19.524-64.236 18.696-96.342 25.898 4.392 51.502 8.783 76.812 13.174-3.285 32.106-19.524 64.23-18.696 96.325Z"/><path fill="#fff" d="M300.562 133.026a23150.062 23150.062 0 0 1-76.812-13.157c3.309-32.13 19.524-64.236 18.696-96.342 25.898 4.392 51.502 8.783 76.812 13.174-3.285 32.106-19.524 64.23-18.696 96.325Z" opacity=".8"/><path fill="#DBDBDB" d="M248.814 39.004a26761 26761 0 0 1 41.918 7.327c-.142.828-.29 1.65-.444 2.473-13.88-2.438-27.813-4.88-41.8-7.326.119-.823.225-1.645.326-2.474ZM247.914 45.247a34842.66 34842.66 0 0 1 41.623 7.327c-.178.828-.356 1.65-.539 2.474a62201.07 62201.07 0 0 0-41.516-7.327c.148-.823.29-1.645.432-2.474ZM246.754 51.491l41.38 7.327c-.201.823-.397 1.651-.592 2.474-13.73-2.447-27.496-4.889-41.297-7.327.166-.823.343-1.645.509-2.474ZM245.405 57.728a79623.14 79623.14 0 0 1 60.306 10.736c-.219.823-.444 1.645-.669 2.474-20.031-3.575-40.107-7.151-60.229-10.73.178-.822.373-1.645.592-2.48ZM243.848 63.978c20.09 3.583 40.139 7.161 60.147 10.736-.225.823-.45 1.645-.681 2.474l-60.105-10.736c.213-.822.42-1.621.639-2.474ZM242.203 70.222l60.064 10.735c-.225.823-.456 1.646-.681 2.474l-60.052-10.736c.225-.822.45-1.65.669-2.473ZM240.499 76.466 300.568 87.2c-.225.823-.444 1.646-.663 2.468-20.058-3.574-40.09-7.15-60.093-10.73.231-.822.456-1.65.687-2.473ZM238.776 82.709c20.02 3.575 40.072 7.151 60.159 10.73-.208.828-.415 1.65-.592 2.473a61068.131 61068.131 0 0 1-60.224-10.73c.184-.822.426-1.65.657-2.473ZM237.119 88.953c20.051 3.575 40.161 7.151 60.33 10.73a454.74 454.74 0 0 0-.556 2.474 42169.964 42169.964 0 0 1-60.425-10.73c.184-.829.403-1.651.651-2.474ZM235.486 95.197c20.122 3.575 40.319 7.151 60.59 10.73-.165.828-.319 1.651-.473 2.474a30983.47 30983.47 0 0 1-60.721-10.73c.196-.829.397-1.651.604-2.474ZM234.012 101.435c20.209 3.582 40.528 7.161 60.958 10.735-.136.823-.261 1.651-.379 2.474a20070.778 20070.778 0 0 1-61.111-10.753c.171-.805.349-1.628.532-2.456ZM232.722 107.679c20.331 3.578 40.786 7.157 61.366 10.735a115.16 115.16 0 0 0-.255 2.474 28137.78 28137.78 0 0 1-61.549-10.735c.136-.823.284-1.646.438-2.474Z"/><path fill="#FF4235" d="M269.232 119.863H136.493v96.218h132.739v-96.218Z"/><path fill="#FF4235" d="M183.394 109.897h-46.901v9.967h49.594l-2.693-9.967Z"/><g fill="#000" opacity=".1"><path d="M269.232 119.863H136.493v96.218h132.739v-96.218Z"/><path d="M183.394 109.897h-46.901v9.967h49.594l-2.693-9.967Z"/></g><path fill="#EBEBEB" d="M268.326 180.075a18179.92 18179.92 0 0 1-76.197-21.997c6.274-29.325 23.851-58.052 25.046-87.809a7513.221 7513.221 0 0 1 76.167 20.998c-6.386 29.786-23.939 58.786-25.016 88.808Z"/><path fill="#DBDBDB" d="M268.326 180.075a19304.831 19304.831 0 0 1-76.232-21.832l-.184-.053.036-.166c6.25-29.331 23.791-58.07 24.927-87.838v-.272l.302.083a6888.723 6888.723 0 0 1 76.167 21.08l.207.06c0 .059 0 .124-.041.189-6.427 29.78-24.034 58.774-25.182 88.749Zm0 0c1.006-30.023 18.506-59.022 24.785-88.867.054.082.107.165.166.248a7425.48 7425.48 0 0 0-76.114-20.92l.314-.19c-1.261 29.751-18.867 58.466-25.17 87.779l-.142-.214a18340.67 18340.67 0 0 0 76.161 22.164Z"/><path fill="#455A64" d="M264.225 125.593c-3.853 10.291-15.53 16.026-26.425 12.807-10.895-3.22-16.606-14.092-12.848-24.324 3.758-10.233 14.996-16.056 26.04-12.902 11.043 3.155 17.133 14.121 13.233 24.419Z"/><path fill="#DBDBDB" d="M244.6 119.822c-4.468 5.101-8.99 10.191-13.399 15.28a18.193 18.193 0 0 1-6.25-21.027c3.705-10.185 15.068-16.038 26.04-12.901 10.973 3.136 17.122 14.203 13.245 24.418a12127.08 12127.08 0 0 0-19.636-5.77Z"/><path fill="#DBDBDB" d="M244.6 119.822c3.894 5.238 7.747 10.475 11.682 15.731a22.093 22.093 0 0 1-18.482 2.846c-10.878-3.189-16.571-14.156-12.848-24.323 3.722-10.168 15.067-16.039 26.04-12.902 10.972 3.137 17.121 14.204 13.244 24.418-6.545-1.929-13.091-3.852-19.636-5.77Z"/><path fill="#FF4235" d="m244.6 119.822-20.589 3.432a18.705 18.705 0 0 1 .941-9.179c3.704-10.185 15.067-16.038 26.04-12.901 10.972 3.136 17.121 14.203 13.244 24.418a12127.08 12127.08 0 0 0-19.636-5.77Z"/><path fill="#DBDBDB" d="M223.034 83.177a7778.15 7778.15 0 0 1 31.337 8.776c-.183.764-.367 1.521-.562 2.279a8389.307 8389.307 0 0 0-31.201-8.783c.148-.757.308-1.515.426-2.272ZM220.661 141.802c13.86 4.091 27.796 8.196 41.806 12.315-.207.758-.414 1.516-.592 2.273a42601.977 42601.977 0 0 1-41.936-12.333c.225-.752.473-1.504.722-2.255ZM218.85 147.489a35939.99 35939.99 0 0 0 42.143 12.369 169.6 169.6 0 0 0-.515 2.279 52129.208 52129.208 0 0 1-42.297-12.393c.219-.752.438-1.503.669-2.255ZM217.228 153.183c14.062 4.123 28.246 8.265 42.552 12.428a95.527 95.527 0 0 0-.402 2.284 24316.2 24316.2 0 0 1-42.735-12.458c.189-.745.384-1.503.585-2.254Z"/><path fill="#FF4235" d="m212.464 141.861-5.042-1.479.764-2.249 5.036 1.485c-.255.746-.509 1.498-.758 2.243Z"/><path fill="#455A64" d="m210.671 147.543-5.078-1.491c.231-.746.468-1.498.705-2.249l5.065 1.491a150.32 150.32 0 0 0-.692 2.249Z"/><path fill="#DBDBDB" d="m209.073 153.231-5.095-1.498c.201-.751.408-1.497.621-2.249l5.101 1.492a58.521 58.521 0 0 0-.627 2.255Z"/><path fill="#FF4235" d="M268.882 216.081H136.143l-10.238-88.234h132.739l10.238 88.234Z"/><path fill="#FF4235" d="M171.747 118.71h-46.901l1.059 9.138h49.594l-3.752-9.138Z"/></svg>