<svg xmlns="http://www.w3.org/2000/svg" width="317" height="80" fill="none" viewBox="0 0 317 80"><g clip-path="url(#a)"><path fill="#1b1b1b" d="M7.54 63.372v-33.22H.02V15.932h7.539V0h16.046v15.93h11.31v14.223h-11.31v33.34zM103.586 47.3c0 18.721-14.222 32.706-31.612 32.706S40.484 66.021 40.484 47.3s14.08-32.95 31.49-32.95 31.612 14.222 31.612 32.95m-16.168.121c0-10.823-6.931-18.363-15.444-18.363s-15.438 7.54-15.438 18.363c0 10.574 6.932 17.87 15.438 17.87s15.444-7.296 15.444-17.87M142.002 78.406c-18.357 1.92-28.086-9.12-28.086-26.242V30.153h-7.539V15.93h7.571V0h16.002v15.93h11.303v14.223H129.95v22.133c0 8.75 4.006 12.033 12.033 11.52z"/><path fill="#e6d9ca" d="M163.155 53.502c2.068 7.68 8.148 12.398 15.688 12.398 5.345 0 10.574-2.31 13.249-7.297h17.141c-3.642 12.801-14.721 21.403-30.268 21.403-17.634 0-32.099-14.593-32.099-32.706s14.465-32.95 32.099-32.95c18.478 0 33.794 14.344 31.484 39.152zm31.363-13.134c-1.92-7.297-8.026-11.918-15.681-11.918-7.297 0-13.134 4.622-15.445 11.918zM260.296 72.71c-4.135 4.378-10.452 7.04-19.202 7.04-13.255 0-25.41-6.688-25.41-20.308 0-14.082 11.79-17.75 25.654-18.965 10.458-.973 17.87-2.19 17.87-7.297 0-3.283-4.256-5.959-11.425-5.959-5.716 0-12.283 2.56-13.742 7.905h-16.046c1.581-11.911 13.006-20.789 29.442-20.789 25.41 0 27.356 16.411 27.356 21.397V68.32c.137 3.481.751 6.927 1.824 10.24h-14.721a22.4 22.4 0 0 1-1.6-5.85m-.486-24.322c-3.406 2.189-8.628 3.283-15.195 4.013-7.905.851-12.801 2.56-12.801 7.169 0 3.526 4.134 5.958 10.58 5.958 9.601 0 17.384-3.283 17.384-11.303zM316.204 78.406c-18.356 1.92-28.085-9.12-28.085-26.242V30.153h-7.54V15.93h7.54V0h16.046v15.93h11.31v14.223h-11.31v22.133c0 8.75 4.013 12.033 12.039 11.52zM7.495 47.044a16.45 16.45 0 0 0 16.392 16.392l10.99.044.038 16.354-10.983-.045A16.45 16.45 0 0 1 7.54 63.397z"/></g><defs><clipPath id="a"><path fill="#fff" d="M0 0h316.224v80H0z"/></clipPath></defs></svg>
